<svg version="1.1" id="Layer_1" xmlns="http://www.w3.org/2000/svg" xmlns:xlink="http://www.w3.org/1999/xlink" x="0px" y="0px"
	 width="100%" viewBox="0 0 1600 1600" enable-background="new 0 0 1600 1600" xml:space="preserve">
<path fill="#000000" opacity="1.000000" stroke="none" 
	d="
M1090.000000,1601.000000 
	C726.666748,1601.000000 363.833557,1601.000000 1.000243,1601.000000 
	C1.000162,1067.666992 1.000162,534.333862 1.000081,1.000601 
	C534.332947,1.000401 1067.665894,1.000401 1600.999023,1.000200 
	C1600.999390,534.332764 1600.999390,1067.665527 1600.999756,1600.999146 
	C1430.833374,1601.000000 1260.666626,1601.000000 1090.000000,1601.000000 
M584.028015,1392.928101 
	C584.028015,1422.182739 584.028015,1451.437500 584.028015,1480.615601 
	C588.373535,1480.615601 592.089722,1480.615601 596.161865,1480.615601 
	C596.161865,1468.299805 596.161865,1456.365356 596.161865,1444.001587 
	C601.142395,1444.001587 605.785339,1443.782471 610.386841,1444.123047 
	C611.946106,1444.238403 614.001953,1445.398315 614.808105,1446.709595 
	C621.292175,1457.256836 627.505249,1467.970215 633.889709,1478.579712 
	C634.484192,1479.567627 635.651550,1480.807983 636.620483,1480.869507 
	C640.662537,1481.126587 644.730408,1480.977661 649.692444,1480.977661 
	C641.109131,1466.907837 633.084839,1453.754272 625.052917,1440.588257 
	C626.615356,1439.748413 627.868896,1438.961670 629.208984,1438.371582 
	C643.804016,1431.945557 646.374146,1412.760742 638.923706,1400.997925 
	C633.209717,1391.976807 624.010437,1389.855713 613.540039,1389.183960 
	C604.714172,1389.123047 595.887512,1389.110840 587.062988,1388.967651 
	C584.790466,1388.930786 583.470520,1389.395996 584.028015,1392.928101 
M873.949036,346.452026 
	C873.148438,346.262421 872.348083,346.071930 871.547241,345.883392 
	C860.904419,343.377716 854.177429,345.688721 849.940308,354.196869 
	C848.342834,357.404541 846.442566,360.459900 844.763916,363.628998 
	C832.381348,387.005493 820.037964,410.402771 807.633789,433.767761 
	C805.607117,437.585144 803.341492,441.275665 800.891235,445.538086 
	C790.071960,425.341522 779.525330,405.682831 769.007568,386.008698 
	C763.312500,375.355530 757.750732,364.630157 751.970154,354.023895 
	C747.804016,346.379761 739.787415,342.833038 731.534973,345.256958 
	C705.032349,353.041199 678.606628,361.086853 652.115295,368.909973 
	C635.747437,373.743469 619.273315,378.219574 602.928101,383.126587 
	C595.172729,385.454834 587.809875,387.830933 584.748962,397.286102 
	C573.187744,432.998596 560.953674,468.492981 549.109131,504.114777 
	C548.168152,506.944489 546.751831,508.202484 543.956116,509.131470 
	C508.332245,520.968201 472.791351,533.054993 437.151855,544.843933 
	C430.988464,546.882629 427.045105,550.607239 425.209473,556.583130 
	C422.010986,566.995544 419.045776,577.479431 415.950195,587.923645 
	C405.746521,622.350525 395.507294,656.766968 385.330536,691.201721 
	C382.831635,699.657104 386.229462,707.696472 394.175385,712.009766 
	C412.538055,721.977722 430.925079,731.901855 449.360046,741.735352 
	C466.934540,751.109741 484.610199,760.294983 502.142670,769.746521 
	C503.494659,770.475342 504.861725,772.645020 504.877808,774.159180 
	C505.066986,791.988892 505.064362,809.822021 504.885193,827.651917 
	C504.869659,829.199219 503.631409,831.445557 502.308197,832.162964 
	C477.624542,845.545532 452.845215,858.751770 428.078369,871.980774 
	C416.844238,877.981384 405.681427,884.124329 394.324463,889.883667 
	C384.101685,895.067688 383.393646,902.792786 385.479248,910.552063 
	C391.760559,933.921143 399.118011,956.999695 405.953125,980.221680 
	C411.736053,999.869080 417.404938,1019.550232 423.066437,1039.233032 
	C425.695160,1048.372070 429.842438,1055.072754 440.149689,1058.328369 
	C474.857147,1069.291138 509.211914,1081.367676 543.763489,1092.831543 
	C546.775940,1093.830933 548.157043,1095.164185 549.156799,1098.178833 
	C560.973999,1133.809570 573.041016,1169.357666 584.887390,1204.978882 
	C586.913391,1211.070923 590.669861,1215.065186 596.698181,1216.859863 
	C605.266602,1219.410889 613.915588,1221.691406 622.487549,1224.231323 
	C658.638123,1234.942261 694.734619,1245.838501 730.944458,1256.344360 
	C738.502197,1258.537231 747.018494,1257.590454 752.096619,1247.727051 
	C756.428833,1239.312256 761.211487,1231.130737 765.650940,1222.769653 
	C775.376892,1204.451782 784.992981,1186.075806 794.698853,1167.747437 
	C796.637695,1164.086182 798.777039,1160.531006 801.114502,1156.415405 
	C811.646851,1176.128174 821.863403,1195.234619 832.064941,1214.349365 
	C838.061768,1225.585571 843.944153,1236.883911 850.049866,1248.060547 
	C854.183716,1255.627686 862.374573,1259.130493 870.551392,1256.725586 
	C893.617432,1249.941162 916.610046,1242.907349 939.673828,1236.115234 
	C959.477905,1230.282959 979.373352,1224.760010 999.159790,1218.869629 
	C1006.936890,1216.554443 1014.216675,1214.083618 1017.277527,1204.641357 
	C1028.802490,1169.088379 1041.040283,1133.766846 1052.823242,1098.296143 
	C1053.818726,1095.299316 1055.082764,1093.856689 1058.118652,1092.849854 
	C1093.749390,1081.032715 1129.292480,1068.951172 1164.922852,1057.133179 
	C1171.051392,1055.100586 1175.011108,1051.363281 1176.832642,1045.355713 
	C1179.993408,1034.931396 1182.963257,1024.449219 1186.059082,1014.004883 
	C1196.263794,979.578003 1206.514893,945.164856 1216.687012,910.728394 
	C1219.089844,902.593689 1215.749023,894.179565 1208.233032,890.093079 
	C1189.593506,879.958618 1170.861572,869.993469 1152.131226,860.027283 
	C1134.690674,850.747314 1117.175293,841.606812 1099.794067,832.217712 
	C1098.453247,831.493408 1097.135376,829.294983 1097.119507,827.768127 
	C1096.934082,809.938293 1096.934692,792.105164 1097.117798,774.275391 
	C1097.133545,772.740784 1098.421509,770.526733 1099.755859,769.802063 
	C1119.693604,758.973816 1139.740723,748.346863 1159.758179,737.665100 
	C1175.748535,729.132202 1191.758545,720.635864 1207.710327,712.031433 
	C1215.733521,707.703674 1219.188232,699.782471 1216.696655,691.314941 
	C1209.954956,668.404358 1203.047119,645.542664 1196.302368,622.632996 
	C1190.426514,602.674500 1184.651245,582.686157 1178.896729,562.692261 
	C1176.264038,553.544617 1172.083618,546.906921 1161.776489,543.657043 
	C1127.064453,532.711731 1092.712646,520.627197 1058.163940,509.156433 
	C1055.141235,508.152893 1053.828613,506.761566 1052.828613,503.749390 
	C1041.052246,468.276215 1028.983276,432.900208 1017.216370,397.423981 
	C1015.067444,390.945099 1011.192566,386.898743 1004.750610,385.015594 
	C984.782593,379.178314 964.832031,373.281036 944.867554,367.431580 
	C921.469299,360.576080 898.063416,353.746460 873.949036,346.452026 
M991.000610,1439.500000 
	C991.000610,1453.256592 991.000610,1467.013184 991.000610,1480.762939 
	C994.980591,1480.762939 998.251099,1480.762939 1001.992554,1480.762939 
	C1001.992554,1455.696045 1001.992554,1430.859985 1001.992554,1405.275269 
	C1002.867249,1406.288574 1003.292053,1406.583862 1003.441956,1406.982544 
	C1009.960022,1424.324097 1016.461304,1441.672119 1022.946472,1459.026001 
	C1025.336548,1465.421509 1027.679443,1471.834595 1030.047485,1478.238281 
	C1031.825806,1483.046997 1035.924072,1480.616333 1039.002075,1480.832520 
	C1040.243530,1480.919800 1042.322144,1479.437378 1042.815552,1478.192261 
	C1046.706909,1468.372070 1050.268677,1458.421997 1054.005981,1448.539917 
	C1059.383545,1434.320557 1064.823608,1420.124756 1070.236938,1405.918945 
	C1070.516113,1405.964478 1070.795288,1406.010010 1071.074463,1406.055542 
	C1071.074463,1430.901733 1071.074463,1455.747925 1071.074463,1480.665039 
	C1075.274292,1480.665039 1078.991943,1480.665039 1082.612793,1480.665039 
	C1082.612793,1449.947144 1082.612793,1419.565796 1082.612793,1389.001221 
	C1077.402832,1389.001221 1072.568115,1388.830688 1067.760498,1389.116943 
	C1066.506836,1389.191528 1064.668213,1390.431396 1064.230347,1391.571045 
	C1057.702148,1408.560913 1051.400635,1425.637451 1044.963379,1442.662476 
	C1042.399902,1449.442261 1039.635376,1456.145874 1036.716431,1463.504272 
	C1034.594971,1457.830322 1032.775879,1452.971191 1030.961426,1448.110596 
	C1023.912415,1429.227783 1016.896729,1410.332642 1009.732971,1391.493530 
	C1009.327881,1390.428223 1007.742920,1389.170166 1006.652100,1389.116333 
	C1001.559937,1388.864624 996.448486,1389.004639 991.536804,1389.004639 
	C991.251038,1389.906860 991.071167,1390.210693 991.070496,1390.514648 
	C991.037598,1406.509766 991.019897,1422.504883 991.000610,1439.500000 
M842.837280,1388.001587 
	C841.412415,1388.326904 839.998230,1388.712769 838.560913,1388.968018 
	C822.531860,1391.815308 812.808167,1402.394775 808.970459,1417.202026 
	C806.276245,1427.597412 806.410278,1438.025391 807.985107,1448.540649 
	C809.951538,1461.670410 816.929871,1471.552612 828.279846,1477.912842 
	C836.545288,1482.544434 845.716675,1483.020386 855.283386,1482.182007 
	C872.868713,1480.641235 883.346558,1470.953369 888.976196,1455.129028 
	C892.982605,1443.867432 892.987854,1432.128296 890.674927,1420.601440 
	C888.382874,1409.178589 882.734131,1399.362671 872.412781,1393.235718 
	C863.632751,1388.023804 853.752930,1387.393555 842.837280,1388.001587 
M910.999084,1450.500000 
	C910.999084,1460.591675 910.999084,1470.683350 910.999084,1480.758545 
	C915.654236,1480.758545 919.591187,1480.758545 924.063843,1480.758545 
	C924.063843,1468.468506 924.063843,1456.407349 924.063843,1444.005127 
	C929.571228,1444.005127 934.545471,1443.901367 939.508301,1444.092407 
	C940.504578,1444.130737 941.836853,1445.065430 942.372864,1445.967773 
	C948.615417,1456.478394 954.699219,1467.083130 960.932617,1477.599243 
	C961.709167,1478.909424 963.025757,1480.696777 964.230469,1480.811523 
	C968.399414,1481.208862 972.629456,1480.964600 977.541504,1480.964600 
	C968.971436,1466.944580 960.947388,1453.817871 953.429749,1441.519653 
	C957.877686,1437.780640 962.393616,1434.758301 965.913208,1430.840576 
	C970.930542,1425.255737 970.680725,1418.152222 970.047424,1411.080933 
	C969.421753,1404.094849 966.500000,1398.829834 960.587158,1394.797974 
	C955.138306,1391.082397 949.248474,1389.964355 942.951477,1389.934692 
	C932.420654,1389.885010 921.889465,1389.921143 910.999084,1389.921143 
	C910.999084,1409.564819 910.999084,1429.532471 910.999084,1450.500000 
M552.082336,1475.416138 
	C555.753540,1481.756470 557.860352,1482.390869 569.514465,1480.274170 
	C561.368347,1466.811523 553.368652,1453.591064 545.282104,1440.226929 
	C558.363647,1435.176636 564.456543,1425.886475 562.947815,1412.124878 
	C562.057739,1404.005859 559.338074,1396.592163 550.860413,1393.516235 
	C545.878418,1391.708740 540.570312,1390.128906 535.332214,1389.840454 
	C525.000793,1389.271729 514.615967,1389.672852 504.383118,1389.672852 
	C504.383118,1420.081421 504.383118,1450.449341 504.383118,1480.734741 
	C508.371399,1480.734741 511.974854,1480.734741 516.098145,1480.734741 
	C516.098145,1468.427124 516.098145,1456.374512 516.098145,1444.004883 
	C521.594238,1444.004883 526.568848,1443.875488 531.527466,1444.098999 
	C532.714661,1444.152588 534.315369,1445.096558 534.934998,1446.113037 
	C540.699768,1455.571411 546.291809,1465.135010 552.082336,1475.416138 
M713.541077,1463.045166 
	C715.440247,1468.234253 717.227966,1473.469238 719.330017,1478.574707 
	C719.763855,1479.628418 721.316772,1480.784546 722.443481,1480.884888 
	C725.849121,1481.187500 729.298889,1480.994141 733.267517,1480.994141 
	C730.691833,1474.297607 728.384216,1468.251099 726.042480,1462.217896 
	C717.041016,1439.026733 707.951050,1415.869385 699.119690,1392.613647 
	C698.036316,1389.760742 696.772888,1388.445312 693.887268,1389.024780 
	C690.757019,1389.653320 686.888367,1387.010498 684.892578,1392.344482 
	C677.657898,1411.680420 669.926147,1430.829712 662.449768,1450.075806 
	C658.520569,1460.190552 654.732117,1470.360107 650.692261,1480.999878 
	C653.330322,1480.999878 655.338989,1480.805298 657.296448,1481.039307 
	C661.702759,1481.565918 664.070496,1480.257935 665.407837,1475.505737 
	C667.292908,1468.807129 670.268005,1462.397705 673.052429,1455.984253 
	C673.604126,1454.713379 675.382874,1453.156982 676.624084,1453.131958 
	C687.603088,1452.909302 698.588501,1453.002686 709.442261,1453.002686 
	C710.735779,1456.342773 711.907593,1459.368774 713.541077,1463.045166 
M476.445007,1481.000000 
	C479.214020,1481.000000 481.983032,1481.000000 484.601288,1481.000000 
	C484.601288,1477.269409 484.601288,1474.216919 484.601288,1470.808350 
	C471.268127,1470.808350 458.331635,1470.808350 445.342712,1470.808350 
	C445.342712,1460.048584 445.342712,1449.662964 445.342712,1438.742676 
	C457.741028,1438.742676 469.804169,1438.742676 481.715149,1438.742676 
	C481.715149,1434.924316 481.715149,1431.653320 481.715149,1427.852905 
	C469.380127,1427.852905 457.317871,1427.852905 445.407410,1427.852905 
	C445.407410,1418.246948 445.407410,1409.191772 445.407410,1399.788086 
	C458.752319,1399.788086 471.692291,1399.788086 484.658081,1399.788086 
	C484.658081,1396.029907 484.658081,1392.644775 484.658081,1389.401611 
	C467.258514,1389.401611 450.204895,1389.401611 433.285400,1389.401611 
	C433.285400,1420.071899 433.285400,1450.338379 433.285400,1481.000000 
	C447.530243,1481.000000 461.493439,1481.000000 476.445007,1481.000000 
M1166.557007,1469.126465 
	C1163.026001,1466.339111 1158.904053,1464.046753 1156.075684,1460.670776 
	C1147.901611,1450.914062 1148.138550,1438.890015 1149.266724,1427.281860 
	C1150.105469,1418.650146 1153.405029,1410.486328 1161.036743,1404.987793 
	C1171.286011,1397.602905 1182.323120,1397.620972 1193.756104,1401.388428 
	C1201.147583,1403.823975 1200.981934,1403.818726 1204.036865,1397.153442 
	C1205.541870,1393.869751 1204.784668,1392.854858 1201.411865,1391.602417 
	C1190.604614,1387.588623 1179.574341,1386.683228 1168.495361,1389.137573 
	C1155.106445,1392.103760 1145.281494,1399.766602 1139.904541,1412.850464 
	C1134.818604,1425.225220 1135.012451,1437.941162 1137.158813,1450.662109 
	C1138.905029,1461.011353 1143.895996,1470.234131 1152.901611,1475.811890 
	C1167.449951,1484.822754 1183.372192,1484.066895 1199.302856,1479.809692 
	C1200.382690,1479.521118 1201.727539,1477.966675 1201.868408,1476.863037 
	C1202.232300,1474.014038 1201.990356,1471.087524 1201.990356,1467.869995 
	C1190.016602,1471.419800 1178.723022,1473.722290 1166.557007,1469.126465 
M763.599915,1399.999634 
	C774.680664,1399.999634 785.761353,1399.999634 796.732788,1399.999634 
	C796.732788,1395.955200 796.732788,1392.682739 796.732788,1389.319214 
	C779.417114,1389.319214 762.370361,1389.319214 745.361694,1389.319214 
	C745.361694,1420.018188 745.361694,1450.394897 745.361694,1480.755127 
	C749.328552,1480.755127 752.931702,1480.755127 757.064209,1480.755127 
	C757.064209,1468.131226 757.064209,1455.741577 757.064209,1442.832520 
	C769.653748,1442.832520 781.713745,1442.832520 793.766846,1442.832520 
	C793.766846,1439.026489 793.766846,1435.756592 793.766846,1431.957031 
	C781.487671,1431.957031 769.430481,1431.957031 757.346375,1431.957031 
	C757.346375,1421.034424 757.346375,1410.652466 757.346375,1399.999634 
	C759.334473,1399.999634 760.981995,1399.999634 763.599915,1399.999634 
M379.000549,1455.500000 
	C379.000549,1463.920532 379.000549,1472.340942 379.000549,1480.590210 
	C383.423065,1480.590210 387.140167,1480.590210 391.184448,1480.590210 
	C391.184448,1453.600342 391.184448,1427.018921 391.184448,1399.910889 
	C400.903931,1399.910889 410.295349,1399.910889 419.638977,1399.910889 
	C419.638977,1395.985596 419.638977,1392.603271 419.638977,1389.383545 
	C396.233826,1389.383545 373.192902,1389.383545 350.266785,1389.383545 
	C350.266785,1393.043335 350.266785,1396.315918 350.266785,1400.106323 
	C359.911316,1400.106323 369.301483,1400.106323 379.000549,1400.106323 
	C379.000549,1418.592163 379.000549,1436.546021 379.000549,1455.500000 
M1214.016602,1395.167236 
	C1214.596924,1395.772949 1215.074585,1396.710083 1215.775269,1396.927002 
	C1218.811279,1397.867065 1221.912354,1398.596802 1224.779907,1399.348022 
	C1224.779907,1423.806641 1224.779907,1447.728394 1224.779907,1471.605469 
	C1213.326294,1473.834961 1213.326294,1473.834961 1214.614258,1480.695312 
	C1225.342041,1480.695312 1236.074951,1480.695312 1246.785645,1480.695312 
	C1247.163574,1474.037109 1246.795410,1473.689819 1237.233643,1471.422607 
	C1237.233643,1447.369995 1237.233643,1423.298706 1237.233643,1399.276978 
	C1240.897949,1398.322388 1244.331421,1397.427979 1247.634766,1396.567383 
	C1247.634766,1393.987915 1247.634766,1391.601074 1247.634766,1389.394165 
	C1236.224121,1389.394165 1225.183350,1389.394165 1214.003296,1389.394165 
	C1214.003296,1391.283691 1214.003296,1392.777832 1214.016602,1395.167236 
z"/>
<path fill="#5C4EE5" opacity="1.000000" stroke="none" 
	d="
M874.304932,346.678833 
	C898.063416,353.746460 921.469299,360.576080 944.867554,367.431580 
	C964.832031,373.281036 984.782593,379.178314 1004.750610,385.015594 
	C1011.192566,386.898743 1015.067444,390.945099 1017.216370,397.423981 
	C1028.983276,432.900208 1041.052246,468.276215 1052.828613,503.749390 
	C1053.828613,506.761566 1055.141235,508.152893 1058.163940,509.156433 
	C1092.712646,520.627197 1127.064453,532.711731 1161.776489,543.657043 
	C1172.083618,546.906921 1176.264038,553.544617 1178.896729,562.692261 
	C1184.651245,582.686157 1190.426514,602.674500 1196.302368,622.632996 
	C1203.047119,645.542664 1209.954956,668.404358 1216.696655,691.314941 
	C1219.188232,699.782471 1215.733521,707.703674 1207.710327,712.031433 
	C1191.758545,720.635864 1175.748535,729.132202 1159.758179,737.665100 
	C1139.740723,748.346863 1119.693604,758.973816 1099.755859,769.802063 
	C1098.421509,770.526733 1097.133545,772.740784 1097.117798,774.275391 
	C1096.934692,792.105164 1096.934082,809.938293 1097.119507,827.768127 
	C1097.135376,829.294983 1098.453247,831.493408 1099.794067,832.217712 
	C1117.175293,841.606812 1134.690674,850.747314 1152.131226,860.027283 
	C1170.861572,869.993469 1189.593506,879.958618 1208.233032,890.093079 
	C1215.749023,894.179565 1219.089844,902.593689 1216.687012,910.728394 
	C1206.514893,945.164856 1196.263794,979.578003 1186.059082,1014.004883 
	C1182.963257,1024.449219 1179.993408,1034.931396 1176.832642,1045.355713 
	C1175.011108,1051.363281 1171.051392,1055.100586 1164.922852,1057.133179 
	C1129.292480,1068.951172 1093.749390,1081.032715 1058.118652,1092.849854 
	C1055.082764,1093.856689 1053.818726,1095.299316 1052.823242,1098.296143 
	C1041.040283,1133.766846 1028.802490,1169.088379 1017.277527,1204.641357 
	C1014.216675,1214.083618 1006.936890,1216.554443 999.159790,1218.869629 
	C979.373352,1224.760010 959.477905,1230.282959 939.673828,1236.115234 
	C916.610046,1242.907349 893.617432,1249.941162 870.551392,1256.725586 
	C862.374573,1259.130493 854.183716,1255.627686 850.049866,1248.060547 
	C843.944153,1236.883911 838.061768,1225.585571 832.064941,1214.349365 
	C821.863403,1195.234619 811.646851,1176.128174 801.114502,1156.415405 
	C798.777039,1160.531006 796.637695,1164.086182 794.698853,1167.747437 
	C784.992981,1186.075806 775.376892,1204.451782 765.650940,1222.769653 
	C761.211487,1231.130737 756.428833,1239.312256 752.096619,1247.727051 
	C747.018494,1257.590454 738.502197,1258.537231 730.944458,1256.344360 
	C694.734619,1245.838501 658.638123,1234.942261 622.487549,1224.231323 
	C613.915588,1221.691406 605.266602,1219.410889 596.698181,1216.859863 
	C590.669861,1215.065186 586.913391,1211.070923 584.887390,1204.978882 
	C573.041016,1169.357666 560.973999,1133.809570 549.156799,1098.178833 
	C548.157043,1095.164185 546.775940,1093.830933 543.763489,1092.831543 
	C509.211914,1081.367676 474.857147,1069.291138 440.149689,1058.328369 
	C429.842438,1055.072754 425.695160,1048.372070 423.066437,1039.233032 
	C417.404938,1019.550232 411.736053,999.869080 405.953125,980.221680 
	C399.118011,956.999695 391.760559,933.921143 385.479248,910.552063 
	C383.393646,902.792786 384.101685,895.067688 394.324463,889.883667 
	C405.681427,884.124329 416.844238,877.981384 428.078369,871.980774 
	C452.845215,858.751770 477.624542,845.545532 502.308197,832.162964 
	C503.631409,831.445557 504.869659,829.199219 504.885193,827.651917 
	C505.064362,809.822021 505.066986,791.988892 504.877808,774.159180 
	C504.861725,772.645020 503.494659,770.475342 502.142670,769.746521 
	C484.610199,760.294983 466.934540,751.109741 449.360046,741.735352 
	C430.925079,731.901855 412.538055,721.977722 394.175385,712.009766 
	C386.229462,707.696472 382.831635,699.657104 385.330536,691.201721 
	C395.507294,656.766968 405.746521,622.350525 415.950195,587.923645 
	C419.045776,577.479431 422.010986,566.995544 425.209473,556.583130 
	C427.045105,550.607239 430.988464,546.882629 437.151855,544.843933 
	C472.791351,533.054993 508.332245,520.968201 543.956116,509.131470 
	C546.751831,508.202484 548.168152,506.944489 549.109131,504.114777 
	C560.953674,468.492981 573.187744,432.998596 584.748962,397.286102 
	C587.809875,387.830933 595.172729,385.454834 602.928101,383.126587 
	C619.273315,378.219574 635.747437,373.743469 652.115295,368.909973 
	C678.606628,361.086853 705.032349,353.041199 731.534973,345.256958 
	C739.787415,342.833038 747.804016,346.379761 751.970154,354.023895 
	C757.750732,364.630157 763.312500,375.355530 769.007568,386.008698 
	C779.525330,405.682831 790.071960,425.341522 800.891235,445.538086 
	C803.341492,441.275665 805.607117,437.585144 807.633789,433.767761 
	C820.037964,410.402771 832.381348,387.005493 844.763916,363.628998 
	C846.442566,360.459900 848.342834,357.404541 849.940308,354.196869 
	C854.177429,345.688721 860.904419,343.377716 871.547241,345.883392 
	C872.348083,346.071930 873.148438,346.262421 874.304932,346.678833 
M845.083130,433.591248 
	C840.078308,442.950073 835.117371,452.332703 830.056702,461.661194 
	C824.768799,471.408600 819.675598,481.279022 813.957397,490.770447 
	C808.710815,499.478790 793.091614,499.594238 788.073975,490.748016 
	C777.046753,471.307037 766.587097,451.542816 755.982666,431.863708 
	C747.306946,415.763763 738.810547,399.566803 730.031860,383.523743 
	C729.442383,382.446442 726.932251,381.517120 725.670044,381.852692 
	C714.830994,384.734802 704.060974,387.880615 693.294556,391.030609 
	C668.340698,398.331635 643.408386,405.706207 618.444275,412.971802 
	C615.432190,413.848389 613.764160,415.204895 612.676697,418.500275 
	C600.964050,453.994598 588.922913,489.380371 577.127075,524.847534 
	C575.048523,531.097473 571.241455,535.013062 565.010742,537.091675 
	C529.400452,548.971375 493.859467,561.060181 458.197815,572.782593 
	C454.945068,573.851807 453.813538,575.572876 453.024963,578.285583 
	C447.989075,595.610046 442.961365,612.936951 437.915619,630.258484 
	C432.552612,648.669128 427.284332,667.108948 421.681915,685.446594 
	C420.822113,688.260864 421.445099,689.161743 423.716339,690.367432 
	C442.457428,700.316040 461.134796,710.384399 479.846191,720.389099 
	C495.828064,728.934448 511.809418,737.481201 527.833069,745.947693 
	C533.290161,748.831116 536.927307,752.997925 536.952026,759.314636 
	C537.060730,787.144409 537.067505,814.975159 536.932495,842.804749 
	C536.909546,847.527527 534.996521,851.708069 530.540955,854.125000 
	C505.724060,867.587036 480.902008,881.039795 456.057526,894.450867 
	C445.280518,900.268188 434.480408,906.045410 423.610260,911.685669 
	C421.197937,912.937378 420.911469,913.966187 421.735260,916.660767 
	C426.676666,932.824097 431.260742,949.096619 435.983093,965.327087 
	C441.658081,984.831848 447.351257,1004.331238 453.037323,1023.832764 
	C453.836090,1026.572144 455.118103,1028.184448 458.314056,1029.235229 
	C493.974457,1040.959473 529.520142,1053.032349 565.123047,1064.932251 
	C571.143799,1066.944580 575.037292,1070.796021 577.042297,1076.785400 
	C588.649597,1111.459595 600.492249,1146.057007 611.728088,1180.850708 
	C613.423889,1186.102051 615.939148,1188.740845 620.834290,1189.934326 
	C623.519958,1190.589111 626.203674,1191.265869 628.854431,1192.047485 
	C659.093445,1200.965332 689.339539,1209.859741 719.551758,1218.867676 
	C728.455994,1221.522461 728.400879,1221.672363 732.740967,1213.662720 
	C733.436584,1212.378906 734.319702,1211.196045 735.003906,1209.906982 
	C747.329895,1186.684570 759.590027,1163.427002 771.974548,1140.235840 
	C777.121826,1130.597046 782.622559,1121.147217 787.786255,1111.516846 
	C792.515808,1102.696411 809.393494,1102.739502 814.065491,1111.306030 
	C824.692871,1130.792358 835.405701,1150.232666 845.939880,1169.769165 
	C854.617004,1185.861694 863.119385,1202.049072 871.611694,1218.240112 
	C872.782715,1220.472778 873.651123,1221.262695 876.512756,1220.341553 
	C887.958618,1216.657104 899.543945,1213.402954 911.095947,1210.052612 
	C935.446167,1202.990356 959.812744,1195.984131 984.157654,1188.903809 
	C986.674072,1188.172119 988.218933,1186.846680 989.206421,1183.847046 
	C1000.944763,1148.190674 1013.022034,1112.645996 1024.904297,1077.036743 
	C1026.977905,1070.822754 1030.888428,1066.961182 1037.109619,1064.889038 
	C1072.571167,1053.077271 1107.962891,1041.054565 1143.459473,1029.349487 
	C1146.747925,1028.265137 1148.144287,1026.617310 1149.021118,1023.602661 
	C1154.966797,1003.159729 1161.039429,982.753723 1167.007202,962.317139 
	C1171.471802,947.027893 1175.904785,931.728333 1180.132446,916.372864 
	C1180.479736,915.111084 1179.580322,912.576233 1178.515625,911.993774 
	C1159.901001,901.810425 1141.176025,891.829102 1122.463013,881.826233 
	C1106.335571,873.205566 1090.193115,864.612976 1074.057373,856.008179 
	C1068.658447,853.129150 1065.046875,848.929810 1065.030762,842.562317 
	C1064.960693,814.898926 1064.951416,787.235107 1065.046509,759.571899 
	C1065.063599,754.617859 1066.906616,750.325378 1071.557373,747.799927 
	C1091.201904,737.133057 1110.839233,726.453003 1130.516235,715.846497 
	C1146.472534,707.245667 1162.511230,698.796692 1178.404175,690.080750 
	C1179.505493,689.476746 1180.510742,686.992188 1180.179932,685.749634 
	C1177.294678,674.911560 1174.131958,664.146240 1170.979980,653.380310 
	C1163.675049,628.427429 1156.306396,603.493164 1149.032471,578.531311 
	C1148.166504,575.560181 1146.913086,573.815979 1143.574097,572.717163 
	C1107.915771,560.982971 1072.354736,548.953308 1036.756470,537.036560 
	C1030.768188,535.031982 1026.938721,531.121033 1024.925415,525.094666 
	C1013.029907,489.489288 1000.946899,453.946106 989.230286,418.282349 
	C988.169312,415.053040 986.520081,413.828918 983.799316,413.037048 
	C966.476501,407.995148 949.146973,402.976654 931.827454,397.923553 
	C913.260925,392.506622 894.716125,387.013702 876.109680,381.738312 
	C874.957947,381.411743 872.606873,382.291443 872.064819,383.289398 
	C863.102112,399.790405 854.340027,416.400421 845.083130,433.591248 
z"/>
<path fill="#5C4EE5" opacity="1.000000" stroke="none" 
	d="
M991.000610,1439.000000 
	C991.019897,1422.504883 991.037598,1406.509766 991.070496,1390.514648 
	C991.071167,1390.210693 991.251038,1389.906860 991.536804,1389.004639 
	C996.448486,1389.004639 1001.559937,1388.864624 1006.652100,1389.116333 
	C1007.742920,1389.170166 1009.327881,1390.428223 1009.732971,1391.493530 
	C1016.896729,1410.332642 1023.912415,1429.227783 1030.961426,1448.110596 
	C1032.775879,1452.971191 1034.594971,1457.830322 1036.716431,1463.504272 
	C1039.635376,1456.145874 1042.399902,1449.442261 1044.963379,1442.662476 
	C1051.400635,1425.637451 1057.702148,1408.560913 1064.230347,1391.571045 
	C1064.668213,1390.431396 1066.506836,1389.191528 1067.760498,1389.116943 
	C1072.568115,1388.830688 1077.402832,1389.001221 1082.612793,1389.001221 
	C1082.612793,1419.565796 1082.612793,1449.947144 1082.612793,1480.665039 
	C1078.991943,1480.665039 1075.274292,1480.665039 1071.074463,1480.665039 
	C1071.074463,1455.747925 1071.074463,1430.901733 1071.074463,1406.055542 
	C1070.795288,1406.010010 1070.516113,1405.964478 1070.236938,1405.918945 
	C1064.823608,1420.124756 1059.383545,1434.320557 1054.005981,1448.539917 
	C1050.268677,1458.421997 1046.706909,1468.372070 1042.815552,1478.192261 
	C1042.322144,1479.437378 1040.243530,1480.919800 1039.002075,1480.832520 
	C1035.924072,1480.616333 1031.825806,1483.046997 1030.047485,1478.238281 
	C1027.679443,1471.834595 1025.336548,1465.421509 1022.946472,1459.026001 
	C1016.461304,1441.672119 1009.960022,1424.324097 1003.441956,1406.982544 
	C1003.292053,1406.583862 1002.867249,1406.288574 1001.992554,1405.275269 
	C1001.992554,1430.859985 1001.992554,1455.696045 1001.992554,1480.762939 
	C998.251099,1480.762939 994.980591,1480.762939 991.000610,1480.762939 
	C991.000610,1467.013184 991.000610,1453.256592 991.000610,1439.000000 
z"/>
<path fill="#5C4EE5" opacity="1.000000" stroke="none" 
	d="
M843.304993,1388.000977 
	C853.752930,1387.393555 863.632751,1388.023804 872.412781,1393.235718 
	C882.734131,1399.362671 888.382874,1409.178589 890.674927,1420.601440 
	C892.987854,1432.128296 892.982605,1443.867432 888.976196,1455.129028 
	C883.346558,1470.953369 872.868713,1480.641235 855.283386,1482.182007 
	C845.716675,1483.020386 836.545288,1482.544434 828.279846,1477.912842 
	C816.929871,1471.552612 809.951538,1461.670410 807.985107,1448.540649 
	C806.410278,1438.025391 806.276245,1427.597412 808.970459,1417.202026 
	C812.808167,1402.394775 822.531860,1391.815308 838.560913,1388.968018 
	C839.998230,1388.712769 841.412415,1388.326904 843.304993,1388.000977 
M823.147705,1455.642334 
	C826.796814,1464.016968 833.269165,1468.963135 842.249512,1471.627075 
	C843.204834,1471.734985 844.160156,1471.842896 846.004333,1471.991943 
	C847.504089,1471.994629 849.012207,1472.101929 850.502319,1471.983276 
	C861.891968,1471.077148 871.553894,1466.525879 876.138855,1452.929443 
	C879.501526,1442.957764 879.948059,1432.925537 877.797607,1422.855103 
	C876.229370,1415.511230 873.694153,1408.427856 866.774353,1403.931152 
	C856.662109,1397.359741 846.100159,1397.093506 835.503418,1401.982544 
	C824.106201,1407.241089 820.966553,1417.869385 820.155212,1429.123901 
	C819.660583,1435.984131 820.694946,1442.954590 821.285156,1450.262939 
	C821.455261,1450.516357 821.641113,1450.757690 821.947266,1451.502075 
	C821.909180,1451.673096 821.871155,1451.844238 821.593506,1452.497192 
	C822.006836,1453.331421 822.420166,1454.165771 823.147705,1455.642334 
z"/>
<path fill="#5C4EE5" opacity="1.000000" stroke="none" 
	d="
M910.999084,1450.000000 
	C910.999084,1429.532471 910.999084,1409.564819 910.999084,1389.921143 
	C921.889465,1389.921143 932.420654,1389.885010 942.951477,1389.934692 
	C949.248474,1389.964355 955.138306,1391.082397 960.587158,1394.797974 
	C966.500000,1398.829834 969.421753,1404.094849 970.047424,1411.080933 
	C970.680725,1418.152222 970.930542,1425.255737 965.913208,1430.840576 
	C962.393616,1434.758301 957.877686,1437.780640 953.429749,1441.519653 
	C960.947388,1453.817871 968.971436,1466.944580 977.541504,1480.964600 
	C972.629456,1480.964600 968.399414,1481.208862 964.230469,1480.811523 
	C963.025757,1480.696777 961.709167,1478.909424 960.932617,1477.599243 
	C954.699219,1467.083130 948.615417,1456.478394 942.372864,1445.967773 
	C941.836853,1445.065430 940.504578,1444.130737 939.508301,1444.092407 
	C934.545471,1443.901367 929.571228,1444.005127 924.063843,1444.005127 
	C924.063843,1456.407349 924.063843,1468.468506 924.063843,1480.758545 
	C919.591187,1480.758545 915.654236,1480.758545 910.999084,1480.758545 
	C910.999084,1470.683350 910.999084,1460.591675 910.999084,1450.000000 
M924.001587,1403.698853 
	C924.001587,1413.420532 924.001587,1423.142212 924.001587,1432.993896 
	C930.456848,1432.993896 936.106750,1433.066650 941.752625,1432.947266 
	C943.340210,1432.913696 944.937134,1432.393188 946.493286,1431.963745 
	C953.677490,1429.981201 958.320435,1424.086182 957.978027,1414.823120 
	C957.711548,1407.613892 952.504089,1401.868408 945.135803,1401.062988 
	C939.098877,1400.402954 932.999023,1400.208374 926.922913,1400.132446 
	C925.961182,1400.120483 924.978027,1401.826294 924.001587,1403.698853 
z"/>
<path fill="#5C4EE5" opacity="1.000000" stroke="none" 
	d="
M552.008179,1475.042114 
	C546.291809,1465.135010 540.699768,1455.571411 534.934998,1446.113037 
	C534.315369,1445.096558 532.714661,1444.152588 531.527466,1444.098999 
	C526.568848,1443.875488 521.594238,1444.004883 516.098145,1444.004883 
	C516.098145,1456.374512 516.098145,1468.427124 516.098145,1480.734741 
	C511.974854,1480.734741 508.371399,1480.734741 504.383118,1480.734741 
	C504.383118,1450.449341 504.383118,1420.081421 504.383118,1389.672852 
	C514.615967,1389.672852 525.000793,1389.271729 535.332214,1389.840454 
	C540.570312,1390.128906 545.878418,1391.708740 550.860413,1393.516235 
	C559.338074,1396.592163 562.057739,1404.005859 562.947815,1412.124878 
	C564.456543,1425.886475 558.363647,1435.176636 545.282104,1440.226929 
	C553.368652,1453.591064 561.368347,1466.811523 569.514465,1480.274170 
	C557.860352,1482.390869 555.753540,1481.756470 552.008179,1475.042114 
M524.527588,1400.000000 
	C521.769470,1400.000000 519.011414,1400.000000 516.383362,1400.000000 
	C516.383362,1411.400024 516.383362,1422.105835 516.383362,1433.906006 
	C524.820435,1432.928711 532.891602,1432.604248 540.665771,1430.914062 
	C547.807556,1429.361328 550.062378,1424.399048 549.999329,1414.348999 
	C549.957031,1407.605225 547.341003,1403.729370 540.462158,1401.998901 
	C535.615173,1400.779907 530.499695,1400.628174 524.527588,1400.000000 
z"/>
<path fill="#5C4EE5" opacity="1.000000" stroke="none" 
	d="
M614.044189,1389.886963 
	C624.010437,1389.855713 633.209717,1391.976807 638.923706,1400.997925 
	C646.374146,1412.760742 643.804016,1431.945557 629.208984,1438.371582 
	C627.868896,1438.961670 626.615356,1439.748413 625.052917,1440.588257 
	C633.084839,1453.754272 641.109131,1466.907837 649.692444,1480.977661 
	C644.730408,1480.977661 640.662537,1481.126587 636.620483,1480.869507 
	C635.651550,1480.807983 634.484192,1479.567627 633.889709,1478.579712 
	C627.505249,1467.970215 621.292175,1457.256836 614.808105,1446.709595 
	C614.001953,1445.398315 611.946106,1444.238403 610.386841,1444.123047 
	C605.785339,1443.782471 601.142395,1444.001587 596.161865,1444.001587 
	C596.161865,1456.365356 596.161865,1468.299805 596.161865,1480.615601 
	C592.089722,1480.615601 588.373535,1480.615601 584.028015,1480.615601 
	C584.028015,1451.437500 584.028015,1422.182739 584.555542,1392.464111 
	C592.060730,1391.998169 599.046265,1392.187744 606.011902,1391.897949 
	C608.712585,1391.785645 611.368103,1390.589478 614.044189,1389.886963 
M595.999878,1421.478638 
	C595.999878,1425.231567 595.999878,1428.984619 595.999878,1433.474854 
	C603.921204,1432.946899 611.187622,1432.921509 618.298889,1431.858154 
	C625.267761,1430.816162 629.833801,1424.605957 629.999939,1417.505371 
	C630.187012,1409.508789 626.088806,1402.455811 619.290771,1401.321045 
	C611.769531,1400.065552 604.033081,1400.098755 595.999878,1399.543701 
	C595.999878,1407.244873 595.999878,1413.865601 595.999878,1421.478638 
z"/>
<path fill="#5C4EE5" opacity="1.000000" stroke="none" 
	d="
M713.310242,1462.719971 
	C711.907593,1459.368774 710.735779,1456.342773 709.442261,1453.002686 
	C698.588501,1453.002686 687.603088,1452.909302 676.624084,1453.131958 
	C675.382874,1453.156982 673.604126,1454.713379 673.052429,1455.984253 
	C670.268005,1462.397705 667.292908,1468.807129 665.407837,1475.505737 
	C664.070496,1480.257935 661.702759,1481.565918 657.296448,1481.039307 
	C655.338989,1480.805298 653.330322,1480.999878 650.692261,1480.999878 
	C654.732117,1470.360107 658.520569,1460.190552 662.449768,1450.075806 
	C669.926147,1430.829712 677.657898,1411.680420 684.892578,1392.344482 
	C686.888367,1387.010498 690.757019,1389.653320 693.887268,1389.024780 
	C696.772888,1388.445312 698.036316,1389.760742 699.119690,1392.613647 
	C707.951050,1415.869385 717.041016,1439.026733 726.042480,1462.217896 
	C728.384216,1468.251099 730.691833,1474.297607 733.267517,1480.994141 
	C729.298889,1480.994141 725.849121,1481.187500 722.443481,1480.884888 
	C721.316772,1480.784546 719.763855,1479.628418 719.330017,1478.574707 
	C717.227966,1473.469238 715.440247,1468.234253 713.310242,1462.719971 
M704.484131,1441.970093 
	C704.554504,1441.068848 704.926880,1440.059692 704.649353,1439.282715 
	C701.208435,1429.650635 697.665466,1420.054810 694.168152,1410.442749 
	C693.501587,1408.610840 692.919250,1406.748169 692.039185,1404.129395 
	C687.229004,1417.354980 682.802734,1429.524902 678.267029,1441.995728 
	C687.019592,1441.995728 695.337708,1441.995728 704.484131,1441.970093 
z"/>
<path fill="#5C4EE5" opacity="1.000000" stroke="none" 
	d="
M475.950806,1481.000000 
	C461.493439,1481.000000 447.530243,1481.000000 433.285400,1481.000000 
	C433.285400,1450.338379 433.285400,1420.071899 433.285400,1389.401611 
	C450.204895,1389.401611 467.258514,1389.401611 484.658081,1389.401611 
	C484.658081,1392.644775 484.658081,1396.029907 484.658081,1399.788086 
	C471.692291,1399.788086 458.752319,1399.788086 445.407410,1399.788086 
	C445.407410,1409.191772 445.407410,1418.246948 445.407410,1427.852905 
	C457.317871,1427.852905 469.380127,1427.852905 481.715149,1427.852905 
	C481.715149,1431.653320 481.715149,1434.924316 481.715149,1438.742676 
	C469.804169,1438.742676 457.741028,1438.742676 445.342712,1438.742676 
	C445.342712,1449.662964 445.342712,1460.048584 445.342712,1470.808350 
	C458.331635,1470.808350 471.268127,1470.808350 484.601288,1470.808350 
	C484.601288,1474.216919 484.601288,1477.269409 484.601288,1481.000000 
	C481.983032,1481.000000 479.214020,1481.000000 475.950806,1481.000000 
z"/>
<path fill="#5C4EE5" opacity="1.000000" stroke="none" 
	d="
M1166.860596,1469.385986 
	C1178.723022,1473.722290 1190.016602,1471.419800 1201.990356,1467.869995 
	C1201.990356,1471.087524 1202.232300,1474.014038 1201.868408,1476.863037 
	C1201.727539,1477.966675 1200.382690,1479.521118 1199.302856,1479.809692 
	C1183.372192,1484.066895 1167.449951,1484.822754 1152.901611,1475.811890 
	C1143.895996,1470.234131 1138.905029,1461.011353 1137.158813,1450.662109 
	C1135.012451,1437.941162 1134.818604,1425.225220 1139.904541,1412.850464 
	C1145.281494,1399.766602 1155.106445,1392.103760 1168.495361,1389.137573 
	C1179.574341,1386.683228 1190.604614,1387.588623 1201.411865,1391.602417 
	C1204.784668,1392.854858 1205.541870,1393.869751 1204.036865,1397.153442 
	C1200.981934,1403.818726 1201.147583,1403.823975 1193.756104,1401.388428 
	C1182.323120,1397.620972 1171.286011,1397.602905 1161.036743,1404.987793 
	C1153.405029,1410.486328 1150.105469,1418.650146 1149.266724,1427.281860 
	C1148.138550,1438.890015 1147.901611,1450.914062 1156.075684,1460.670776 
	C1158.904053,1464.046753 1163.026001,1466.339111 1166.860596,1469.385986 
z"/>
<path fill="#5C4EE5" opacity="1.000000" stroke="none" 
	d="
M763.114746,1399.999634 
	C760.981995,1399.999634 759.334473,1399.999634 757.346375,1399.999634 
	C757.346375,1410.652466 757.346375,1421.034424 757.346375,1431.957031 
	C769.430481,1431.957031 781.487671,1431.957031 793.766846,1431.957031 
	C793.766846,1435.756592 793.766846,1439.026489 793.766846,1442.832520 
	C781.713745,1442.832520 769.653748,1442.832520 757.064209,1442.832520 
	C757.064209,1455.741577 757.064209,1468.131226 757.064209,1480.755127 
	C752.931702,1480.755127 749.328552,1480.755127 745.361694,1480.755127 
	C745.361694,1450.394897 745.361694,1420.018188 745.361694,1389.319214 
	C762.370361,1389.319214 779.417114,1389.319214 796.732788,1389.319214 
	C796.732788,1392.682739 796.732788,1395.955200 796.732788,1399.999634 
	C785.761353,1399.999634 774.680664,1399.999634 763.114746,1399.999634 
z"/>
<path fill="#5C4EE5" opacity="1.000000" stroke="none" 
	d="
M379.000549,1455.000000 
	C379.000549,1436.546021 379.000549,1418.592163 379.000549,1400.106323 
	C369.301483,1400.106323 359.911316,1400.106323 350.266785,1400.106323 
	C350.266785,1396.315918 350.266785,1393.043335 350.266785,1389.383545 
	C373.192902,1389.383545 396.233826,1389.383545 419.638977,1389.383545 
	C419.638977,1392.603271 419.638977,1395.985596 419.638977,1399.910889 
	C410.295349,1399.910889 400.903931,1399.910889 391.184448,1399.910889 
	C391.184448,1427.018921 391.184448,1453.600342 391.184448,1480.590210 
	C387.140167,1480.590210 383.423065,1480.590210 379.000549,1480.590210 
	C379.000549,1472.340942 379.000549,1463.920532 379.000549,1455.000000 
z"/>
<path fill="#5C4EE5" opacity="1.000000" stroke="none" 
	d="
M1214.010010,1394.719482 
	C1214.003296,1392.777832 1214.003296,1391.283691 1214.003296,1389.394165 
	C1225.183350,1389.394165 1236.224121,1389.394165 1247.634766,1389.394165 
	C1247.634766,1391.601074 1247.634766,1393.987915 1247.634766,1396.567383 
	C1244.331421,1397.427979 1240.897949,1398.322388 1237.233643,1399.276978 
	C1237.233643,1423.298706 1237.233643,1447.369995 1237.233643,1471.422607 
	C1246.795410,1473.689819 1247.163574,1474.037109 1246.785645,1480.695312 
	C1236.074951,1480.695312 1225.342041,1480.695312 1214.614258,1480.695312 
	C1213.326294,1473.834961 1213.326294,1473.834961 1224.779907,1471.605469 
	C1224.779907,1447.728394 1224.779907,1423.806641 1224.779907,1399.348022 
	C1221.912354,1398.596802 1218.811279,1397.867065 1215.775269,1396.927002 
	C1215.074585,1396.710083 1214.596924,1395.772949 1214.010010,1394.719482 
z"/>
<path fill="#5C4FE5" opacity="1.000000" stroke="none" 
	d="
M613.792114,1389.535400 
	C611.368103,1390.589478 608.712585,1391.785645 606.011902,1391.897949 
	C599.046265,1392.187744 592.060730,1391.998169 584.625061,1392.000000 
	C583.470520,1389.395996 584.790466,1388.930786 587.062988,1388.967651 
	C595.887512,1389.110840 604.714172,1389.123047 613.792114,1389.535400 
z"/>
<path fill="#000000" opacity="1.000000" stroke="none" 
	d="
M845.308105,433.288635 
	C854.340027,416.400421 863.102112,399.790405 872.064819,383.289398 
	C872.606873,382.291443 874.957947,381.411743 876.109680,381.738312 
	C894.716125,387.013702 913.260925,392.506622 931.827454,397.923553 
	C949.146973,402.976654 966.476501,407.995148 983.799316,413.037048 
	C986.520081,413.828918 988.169312,415.053040 989.230286,418.282349 
	C1000.946899,453.946106 1013.029907,489.489288 1024.925415,525.094666 
	C1026.938721,531.121033 1030.768188,535.031982 1036.756470,537.036560 
	C1072.354736,548.953308 1107.915771,560.982971 1143.574097,572.717163 
	C1146.913086,573.815979 1148.166504,575.560181 1149.032471,578.531311 
	C1156.306396,603.493164 1163.675049,628.427429 1170.979980,653.380310 
	C1174.131958,664.146240 1177.294678,674.911560 1180.179932,685.749634 
	C1180.510742,686.992188 1179.505493,689.476746 1178.404175,690.080750 
	C1162.511230,698.796692 1146.472534,707.245667 1130.516235,715.846497 
	C1110.839233,726.453003 1091.201904,737.133057 1071.557373,747.799927 
	C1066.906616,750.325378 1065.063599,754.617859 1065.046509,759.571899 
	C1064.951416,787.235107 1064.960693,814.898926 1065.030762,842.562317 
	C1065.046875,848.929810 1068.658447,853.129150 1074.057373,856.008179 
	C1090.193115,864.612976 1106.335571,873.205566 1122.463013,881.826233 
	C1141.176025,891.829102 1159.901001,901.810425 1178.515625,911.993774 
	C1179.580322,912.576233 1180.479736,915.111084 1180.132446,916.372864 
	C1175.904785,931.728333 1171.471802,947.027893 1167.007202,962.317139 
	C1161.039429,982.753723 1154.966797,1003.159729 1149.021118,1023.602661 
	C1148.144287,1026.617310 1146.747925,1028.265137 1143.459473,1029.349487 
	C1107.962891,1041.054565 1072.571167,1053.077271 1037.109619,1064.889038 
	C1030.888428,1066.961182 1026.977905,1070.822754 1024.904297,1077.036743 
	C1013.022034,1112.645996 1000.944763,1148.190674 989.206421,1183.847046 
	C988.218933,1186.846680 986.674072,1188.172119 984.157654,1188.903809 
	C959.812744,1195.984131 935.446167,1202.990356 911.095947,1210.052612 
	C899.543945,1213.402954 887.958618,1216.657104 876.512756,1220.341553 
	C873.651123,1221.262695 872.782715,1220.472778 871.611694,1218.240112 
	C863.119385,1202.049072 854.617004,1185.861694 845.939880,1169.769165 
	C835.405701,1150.232666 824.692871,1130.792358 814.065491,1111.306030 
	C809.393494,1102.739502 792.515808,1102.696411 787.786255,1111.516846 
	C782.622559,1121.147217 777.121826,1130.597046 771.974548,1140.235840 
	C759.590027,1163.427002 747.329895,1186.684570 735.003906,1209.906982 
	C734.319702,1211.196045 733.436584,1212.378906 732.740967,1213.662720 
	C728.400879,1221.672363 728.455994,1221.522461 719.551758,1218.867676 
	C689.339539,1209.859741 659.093445,1200.965332 628.854431,1192.047485 
	C626.203674,1191.265869 623.519958,1190.589111 620.834290,1189.934326 
	C615.939148,1188.740845 613.423889,1186.102051 611.728088,1180.850708 
	C600.492249,1146.057007 588.649597,1111.459595 577.042297,1076.785400 
	C575.037292,1070.796021 571.143799,1066.944580 565.123047,1064.932251 
	C529.520142,1053.032349 493.974457,1040.959473 458.314056,1029.235229 
	C455.118103,1028.184448 453.836090,1026.572144 453.037323,1023.832764 
	C447.351257,1004.331238 441.658081,984.831848 435.983093,965.327087 
	C431.260742,949.096619 426.676666,932.824097 421.735260,916.660767 
	C420.911469,913.966187 421.197937,912.937378 423.610260,911.685669 
	C434.480408,906.045410 445.280518,900.268188 456.057526,894.450867 
	C480.902008,881.039795 505.724060,867.587036 530.540955,854.125000 
	C534.996521,851.708069 536.909546,847.527527 536.932495,842.804749 
	C537.067505,814.975159 537.060730,787.144409 536.952026,759.314636 
	C536.927307,752.997925 533.290161,748.831116 527.833069,745.947693 
	C511.809418,737.481201 495.828064,728.934448 479.846191,720.389099 
	C461.134796,710.384399 442.457428,700.316040 423.716339,690.367432 
	C421.445099,689.161743 420.822113,688.260864 421.681915,685.446594 
	C427.284332,667.108948 432.552612,648.669128 437.915619,630.258484 
	C442.961365,612.936951 447.989075,595.610046 453.024963,578.285583 
	C453.813538,575.572876 454.945068,573.851807 458.197815,572.782593 
	C493.859467,561.060181 529.400452,548.971375 565.010742,537.091675 
	C571.241455,535.013062 575.048523,531.097473 577.127075,524.847534 
	C588.922913,489.380371 600.964050,453.994598 612.676697,418.500275 
	C613.764160,415.204895 615.432190,413.848389 618.444275,412.971802 
	C643.408386,405.706207 668.340698,398.331635 693.294556,391.030609 
	C704.060974,387.880615 714.830994,384.734802 725.670044,381.852692 
	C726.932251,381.517120 729.442383,382.446442 730.031860,383.523743 
	C738.810547,399.566803 747.306946,415.763763 755.982666,431.863708 
	C766.587097,451.542816 777.046753,471.307037 788.073975,490.748016 
	C793.091614,499.594238 808.710815,499.478790 813.957397,490.770447 
	C819.675598,481.279022 824.768799,471.408600 830.056702,461.661194 
	C835.117371,452.332703 840.078308,442.950073 845.308105,433.288635 
M730.000000,909.500000 
	C730.000000,926.095093 730.000000,942.690186 730.000000,959.773743 
	C731.370911,959.175781 732.302246,958.868896 733.135986,958.391418 
	C751.093750,948.107605 769.065063,937.846924 786.983032,927.494080 
	C807.722168,915.511292 828.380920,903.389038 849.157043,891.471130 
	C852.378540,889.623169 854.130249,887.869934 854.122742,883.652344 
	C853.960693,792.844299 853.999512,702.035950 853.999512,611.227600 
	C853.999512,609.605042 853.999512,607.982544 853.999512,605.730286 
	C852.169800,606.590576 850.836243,607.108826 849.608032,607.811279 
	C829.382629,619.376953 809.144531,630.920898 788.963135,642.563049 
	C770.619324,653.145081 752.393921,663.934021 733.978027,674.388123 
	C731.042725,676.054382 729.910339,677.636902 729.915283,681.062744 
	C730.026001,756.875000 730.000000,832.687561 730.000000,909.500000 
M940.988586,698.512939 
	C942.529541,697.598145 944.063232,696.671021 945.612610,695.770691 
	C962.557007,685.924866 979.413452,675.920837 996.531860,666.387207 
	C999.682129,664.632812 1000.036072,662.773315 1000.032898,659.839050 
	C999.984558,615.672913 1000.002197,571.506714 999.988892,527.340515 
	C999.988342,525.605957 999.833374,523.871460 999.732910,521.771667 
	C998.403748,522.174072 997.581665,522.265259 996.926025,522.644287 
	C978.690735,533.187317 960.468445,543.752686 942.252258,554.328613 
	C921.349915,566.464050 900.507324,578.704224 879.494629,590.645508 
	C876.753052,592.203552 875.928650,593.665100 875.934937,596.652832 
	C876.029114,641.652161 876.000122,686.651794 876.000183,731.651306 
	C876.000183,732.875854 876.000244,734.100403 876.000244,735.913818 
	C883.947266,731.373962 891.161865,727.276550 898.353394,723.139221 
	C912.363342,715.079224 926.360352,706.996704 940.988586,698.512939 
M585.000000,877.500000 
	C585.000000,886.087280 585.000000,894.674561 585.000000,903.794617 
	C626.624451,879.789978 667.667664,856.120483 708.752441,832.427002 
	C708.752441,785.121582 708.752441,737.696716 708.752441,689.634399 
	C707.000366,690.284607 705.572632,690.595825 704.369019,691.293579 
	C683.360046,703.473450 662.406128,715.748352 641.382568,727.902832 
	C623.895020,738.013062 606.347229,748.019714 588.788513,758.006165 
	C585.958435,759.615723 584.892090,761.610718 584.905884,765.026001 
	C585.056274,802.183533 585.000000,839.341858 585.000000,877.500000 
z"/>
<path fill="#000000" opacity="1.000000" stroke="none" 
	d="
M842.000061,1471.166626 
	C833.269165,1468.963135 826.796814,1464.016968 823.054077,1454.992920 
	C822.584717,1453.567383 822.208923,1452.791260 821.833191,1452.015259 
	C821.871155,1451.844238 821.909180,1451.673096 821.918518,1450.980957 
	C821.607361,1450.265015 821.324951,1450.070312 821.042480,1449.875610 
	C820.694946,1442.954590 819.660583,1435.984131 820.155212,1429.123901 
	C820.966553,1417.869385 824.106201,1407.241089 835.503418,1401.982544 
	C846.100159,1397.093506 856.662109,1397.359741 866.774353,1403.931152 
	C873.694153,1408.427856 876.229370,1415.511230 877.797607,1422.855103 
	C879.948059,1432.925537 879.501526,1442.957764 876.138855,1452.929443 
	C871.553894,1466.525879 861.891968,1471.077148 850.502319,1471.983276 
	C849.012207,1472.101929 847.504089,1471.994629 845.389465,1471.659424 
	C843.849731,1471.273438 842.924927,1471.220093 842.000061,1471.166626 
z"/>
<path fill="#5C4EE5" opacity="1.000000" stroke="none" 
	d="
M821.713379,1452.256226 
	C822.208923,1452.791260 822.584717,1453.567383 822.896973,1454.671631 
	C822.420166,1454.165771 822.006836,1453.331421 821.713379,1452.256226 
z"/>
<path fill="#5C4EE5" opacity="1.000000" stroke="none" 
	d="
M842.124756,1471.396851 
	C842.924927,1471.220093 843.849731,1471.273438 844.945068,1471.638794 
	C844.160156,1471.842896 843.204834,1471.734985 842.124756,1471.396851 
z"/>
<path fill="#5C4EE5" opacity="1.000000" stroke="none" 
	d="
M821.163818,1450.069336 
	C821.324951,1450.070312 821.607361,1450.265015 821.866272,1450.723389 
	C821.641113,1450.757690 821.455261,1450.516357 821.163818,1450.069336 
z"/>
<path fill="#000000" opacity="1.000000" stroke="none" 
	d="
M924.003174,1403.218506 
	C924.978027,1401.826294 925.961182,1400.120483 926.922913,1400.132446 
	C932.999023,1400.208374 939.098877,1400.402954 945.135803,1401.062988 
	C952.504089,1401.868408 957.711548,1407.613892 957.978027,1414.823120 
	C958.320435,1424.086182 953.677490,1429.981201 946.493286,1431.963745 
	C944.937134,1432.393188 943.340210,1432.913696 941.752625,1432.947266 
	C936.106750,1433.066650 930.456848,1432.993896 924.001587,1432.993896 
	C924.001587,1423.142212 924.001587,1413.420532 924.003174,1403.218506 
z"/>
<path fill="#000000" opacity="1.000000" stroke="none" 
	d="
M525.015869,1400.000000 
	C530.499695,1400.628174 535.615173,1400.779907 540.462158,1401.998901 
	C547.341003,1403.729370 549.957031,1407.605225 549.999329,1414.348999 
	C550.062378,1424.399048 547.807556,1429.361328 540.665771,1430.914062 
	C532.891602,1432.604248 524.820435,1432.928711 516.383362,1433.906006 
	C516.383362,1422.105835 516.383362,1411.400024 516.383362,1400.000000 
	C519.011414,1400.000000 521.769470,1400.000000 525.015869,1400.000000 
z"/>
<path fill="#000000" opacity="1.000000" stroke="none" 
	d="
M595.999878,1420.982422 
	C595.999878,1413.865601 595.999878,1407.244873 595.999878,1399.543701 
	C604.033081,1400.098755 611.769531,1400.065552 619.290771,1401.321045 
	C626.088806,1402.455811 630.187012,1409.508789 629.999939,1417.505371 
	C629.833801,1424.605957 625.267761,1430.816162 618.298889,1431.858154 
	C611.187622,1432.921509 603.921204,1432.946899 595.999878,1433.474854 
	C595.999878,1428.984619 595.999878,1425.231567 595.999878,1420.982422 
z"/>
<path fill="#000000" opacity="1.000000" stroke="none" 
	d="
M704.069946,1441.982910 
	C695.337708,1441.995728 687.019592,1441.995728 678.267029,1441.995728 
	C682.802734,1429.524902 687.229004,1417.354980 692.039185,1404.129395 
	C692.919250,1406.748169 693.501587,1408.610840 694.168152,1410.442749 
	C697.665466,1420.054810 701.208435,1429.650635 704.649353,1439.282715 
	C704.926880,1440.059692 704.554504,1441.068848 704.069946,1441.982910 
z"/>
<path fill="#5C4EE5" opacity="1.000000" stroke="none" 
	d="
M730.000000,909.000000 
	C730.000000,832.687561 730.026001,756.875000 729.915283,681.062744 
	C729.910339,677.636902 731.042725,676.054382 733.978027,674.388123 
	C752.393921,663.934021 770.619324,653.145081 788.963135,642.563049 
	C809.144531,630.920898 829.382629,619.376953 849.608032,607.811279 
	C850.836243,607.108826 852.169800,606.590576 853.999512,605.730286 
	C853.999512,607.982544 853.999512,609.605042 853.999512,611.227600 
	C853.999512,702.035950 853.960693,792.844299 854.122742,883.652344 
	C854.130249,887.869934 852.378540,889.623169 849.157043,891.471130 
	C828.380920,903.389038 807.722168,915.511292 786.983032,927.494080 
	C769.065063,937.846924 751.093750,948.107605 733.135986,958.391418 
	C732.302246,958.868896 731.370911,959.175781 730.000000,959.773743 
	C730.000000,942.690186 730.000000,926.095093 730.000000,909.000000 
z"/>
<path fill="#844FBA" opacity="1.000000" stroke="none" 
	d="
M940.675659,698.718262 
	C926.360352,706.996704 912.363342,715.079224 898.353394,723.139221 
	C891.161865,727.276550 883.947266,731.373962 876.000244,735.913818 
	C876.000244,734.100403 876.000183,732.875854 876.000183,731.651306 
	C876.000122,686.651794 876.029114,641.652161 875.934937,596.652832 
	C875.928650,593.665100 876.753052,592.203552 879.494629,590.645508 
	C900.507324,578.704224 921.349915,566.464050 942.252258,554.328613 
	C960.468445,543.752686 978.690735,533.187317 996.926025,522.644287 
	C997.581665,522.265259 998.403748,522.174072 999.732910,521.771667 
	C999.833374,523.871460 999.988342,525.605957 999.988892,527.340515 
	C1000.002197,571.506714 999.984558,615.672913 1000.032898,659.839050 
	C1000.036072,662.773315 999.682129,664.632812 996.531860,666.387207 
	C979.413452,675.920837 962.557007,685.924866 945.612610,695.770691 
	C944.063232,696.671021 942.529541,697.598145 940.675659,698.718262 
z"/>
<path fill="#5C4EE5" opacity="1.000000" stroke="none" 
	d="
M585.000000,877.000000 
	C585.000000,839.341858 585.056274,802.183533 584.905884,765.026001 
	C584.892090,761.610718 585.958435,759.615723 588.788513,758.006165 
	C606.347229,748.019714 623.895020,738.013062 641.382568,727.902832 
	C662.406128,715.748352 683.360046,703.473450 704.369019,691.293579 
	C705.572632,690.595825 707.000366,690.284607 708.752441,689.634399 
	C708.752441,737.696716 708.752441,785.121582 708.752441,832.427002 
	C667.667664,856.120483 626.624451,879.789978 585.000000,903.794617 
	C585.000000,894.674561 585.000000,886.087280 585.000000,877.000000 
z"/>
</svg>