<svg version="1.1" id="Layer_1" xmlns="http://www.w3.org/2000/svg" xmlns:xlink="http://www.w3.org/1999/xlink" x="0px" y="0px"
	 width="100%" viewBox="0 0 1600 1600" enable-background="new 0 0 1600 1600" xml:space="preserve">
<path fill="#000000" opacity="1.000000" stroke="none" 
	d="
M1103.000000,1601.000000 
	C735.333435,1601.000000 368.166901,1601.000000 1.000246,1601.000000 
	C1.000164,1067.666992 1.000164,534.333862 1.000082,1.000604 
	C534.332886,1.000403 1067.665771,1.000403 1600.999023,1.000201 
	C1600.999268,534.332764 1600.999268,1067.665527 1600.999634,1600.999146 
	C1435.166626,1601.000000 1269.333374,1601.000000 1103.000000,1601.000000 
M869.500000,1137.000000 
	C952.969910,1137.000000 1036.440552,1136.833252 1119.908813,1137.197388 
	C1131.170532,1137.246460 1137.170532,1129.284790 1137.147705,1119.842285 
	C1136.908447,1021.018005 1137.000000,922.192932 1137.000000,823.368042 
	C1137.000000,821.413391 1137.000000,819.458801 1137.000000,817.000000 
	C1139.434448,817.000000 1141.386353,817.000000 1143.338379,817.000000 
	C1216.165527,817.000061 1288.992798,817.056824 1361.819336,816.829224 
	C1365.389893,816.818115 1369.361450,814.926514 1372.434448,812.854675 
	C1378.960938,808.454407 1378.573975,794.837769 1370.800171,787.076111 
	C1184.938477,601.503235 999.251343,415.755402 813.531738,230.040085 
	C806.114014,222.622543 795.893738,222.615479 788.484436,230.024811 
	C602.294800,416.212738 416.120819,602.416321 229.843033,788.515991 
	C224.478394,793.875549 223.874954,801.065125 225.816162,807.177185 
	C228.004883,814.068542 233.419388,816.999207 241.662460,816.999329 
	C313.989624,817.000488 386.316772,817.000000 458.643921,817.000000 
	C460.597473,817.000000 462.551056,817.000000 465.000000,817.000000 
	C465.000000,819.444275 465.000000,821.397339 465.000000,823.350403 
	C465.000000,922.508606 464.999847,1021.666870 465.000214,1120.825073 
	C465.000275,1131.442993 470.507812,1136.999634 481.033112,1136.999634 
	C610.188721,1137.000122 739.344360,1137.000000 869.500000,1137.000000 
M1046.638916,1388.999268 
	C1043.950928,1389.397705 1040.579224,1387.576904 1039.071167,1391.650757 
	C1032.737427,1408.760742 1026.375366,1425.860474 1019.928284,1442.927734 
	C1017.414490,1449.582275 1014.648987,1456.141724 1011.591736,1463.756836 
	C1002.450684,1439.110474 993.715393,1415.490601 984.869690,1391.912109 
	C984.438110,1390.761963 983.080078,1389.200195 982.084045,1389.147827 
	C976.835571,1388.871338 971.564819,1389.018188 966.410278,1389.018188 
	C966.410278,1420.068115 966.410278,1450.449707 966.410278,1480.694336 
	C970.091125,1480.694336 973.359070,1480.694336 976.937622,1480.694336 
	C976.937622,1455.633179 976.937622,1430.874146 976.937622,1406.114990 
	C983.455078,1420.911255 989.222473,1435.871826 994.914978,1450.860840 
	C998.328003,1459.847534 1001.779358,1468.825195 1004.908875,1477.911865 
	C1006.542664,1482.655518 1010.226624,1480.857300 1013.157104,1480.853516 
	C1014.712524,1480.851440 1017.176453,1479.710205 1017.676208,1478.461304 
	C1021.669434,1468.484619 1025.236938,1458.338623 1029.038940,1448.283936 
	C1034.374878,1434.172729 1039.800659,1420.095337 1045.187988,1406.003540 
	C1045.483398,1406.047607 1045.778687,1406.091675 1046.074097,1406.135742 
	C1046.074097,1430.963623 1046.074097,1455.791504 1046.074097,1480.623535 
	C1050.326172,1480.623535 1054.040161,1480.623535 1057.731079,1480.623535 
	C1057.731079,1449.984497 1057.731079,1419.722534 1057.731079,1388.999268 
	C1054.183228,1388.999268 1050.889404,1388.999268 1046.638916,1388.999268 
M802.433411,1392.907959 
	C792.033691,1397.653198 786.988708,1406.547241 784.025024,1416.943726 
	C780.889282,1427.944092 780.998779,1439.231812 783.184753,1450.233643 
	C785.586609,1462.322021 791.443970,1472.542847 803.376648,1478.100708 
	C812.369141,1482.289185 821.648560,1483.285522 831.483459,1482.096069 
	C844.103760,1480.569580 853.653625,1474.758789 860.035034,1463.792358 
	C867.612427,1450.770752 868.412292,1436.633911 865.823120,1422.320923 
	C863.867188,1411.508301 859.697327,1401.290649 849.919617,1395.069336 
	C834.931396,1385.532471 819.112793,1385.424072 802.433411,1392.907959 
M1246.248657,1393.058838 
	C1241.495972,1392.011475 1236.770264,1390.236816 1231.985474,1390.060303 
	C1220.135254,1389.623047 1208.258057,1389.916626 1196.377075,1389.916626 
	C1196.377075,1419.994263 1196.377075,1450.373169 1196.377075,1480.000366 
	C1210.003784,1480.000366 1223.372070,1481.126099 1236.454590,1479.675537 
	C1248.886719,1478.297119 1258.974487,1471.547607 1264.834473,1459.589966 
	C1269.325562,1450.425659 1270.500000,1440.790527 1269.975708,1430.831909 
	C1269.100830,1414.212036 1263.116455,1400.659424 1246.248657,1393.058838 
M914.206421,1389.002075 
	C904.939819,1389.002075 895.673218,1389.002075 886.313843,1389.002075 
	C886.313843,1419.918945 886.313843,1450.276123 886.313843,1480.617920 
	C890.679443,1480.617920 894.723755,1480.617920 899.141235,1480.617920 
	C899.141235,1468.316162 899.141235,1456.392700 899.141235,1444.009155 
	C904.629272,1444.009155 909.750427,1443.926514 914.863647,1444.090820 
	C915.709229,1444.117920 916.820557,1445.046875 917.301331,1445.859375 
	C923.446899,1456.243896 929.445374,1466.715698 935.635620,1477.073120 
	C936.557739,1478.615967 938.151428,1480.602905 939.641479,1480.797241 
	C943.627808,1481.317261 947.726685,1480.974609 952.481812,1480.974609 
	C943.948364,1466.999878 935.927368,1453.864380 927.765137,1440.497559 
	C941.441589,1435.068481 946.841614,1425.359619 945.111633,1411.075806 
	C943.938721,1401.392090 937.635193,1393.367798 927.698669,1391.086060 
	C923.573608,1390.138794 919.334106,1389.689941 914.206421,1389.002075 
M513.459106,1389.999634 
	C502.099030,1389.999634 490.738983,1389.999634 479.374634,1389.999634 
	C479.374634,1420.008667 479.374634,1450.386597 479.374634,1480.729858 
	C483.353760,1480.729858 486.952911,1480.729858 491.110962,1480.729858 
	C491.110962,1468.414795 491.110962,1456.359863 491.110962,1444.000977 
	C496.319366,1444.000977 500.984863,1443.733887 505.591125,1444.139648 
	C507.302277,1444.290161 509.521576,1445.625977 510.406189,1447.088379 
	C516.484741,1457.137817 522.202881,1467.405029 528.226135,1477.489014 
	C529.107422,1478.964600 530.894104,1480.646118 532.433655,1480.835449 
	C536.318604,1481.312988 540.301453,1480.993652 545.090149,1480.993652 
	C536.559998,1467.043335 528.430176,1453.747559 520.293396,1440.440430 
	C538.270447,1432.479736 539.316833,1421.372559 537.665588,1409.824707 
	C535.947937,1397.812256 527.097656,1391.020508 513.459106,1389.999634 
M574.497070,1388.999390 
	C569.406677,1388.999390 564.316223,1388.999390 559.255249,1388.999390 
	C559.255249,1420.003662 559.255249,1450.259521 559.255249,1480.673584 
	C563.229126,1480.673584 566.942200,1480.673584 571.217896,1480.673584 
	C571.217896,1468.301392 571.217896,1456.246948 571.217896,1444.001465 
	C576.441650,1444.001465 581.110352,1443.807373 585.745117,1444.117798 
	C587.167664,1444.213135 589.037170,1445.360474 589.785278,1446.585938 
	C596.248230,1457.170776 602.463501,1467.906494 608.875916,1478.522705 
	C609.524780,1479.596924 610.939636,1480.794434 612.078491,1480.880371 
	C615.953735,1481.172363 619.864624,1480.991821 624.688599,1480.991821 
	C616.110596,1466.912476 608.097351,1453.760010 599.989441,1440.452148 
	C609.790527,1436.440063 616.491455,1430.099731 617.670715,1419.570435 
	C618.906738,1408.534912 615.182373,1395.460083 602.266479,1392.212646 
	C593.618774,1390.038330 584.435059,1389.995728 574.497070,1388.999390 
M697.086975,1452.387329 
	C689.381592,1432.320435 681.569336,1412.293457 674.071838,1392.149170 
	C672.762512,1388.631348 670.472290,1388.807251 667.902222,1389.046387 
	C664.971680,1389.319214 661.674927,1387.566040 659.879578,1392.340210 
	C651.972046,1413.368164 643.558594,1434.205322 635.414368,1455.145020 
	C632.142944,1463.556274 629.092285,1472.053345 625.759216,1480.999756 
	C628.338318,1480.999756 630.198853,1480.754028 631.970520,1481.046509 
	C637.008606,1481.878418 639.256592,1479.597168 640.698181,1474.897217 
	C642.699219,1468.373169 645.382202,1462.042358 648.085388,1455.763184 
	C648.616455,1454.529541 650.551392,1453.147339 651.864197,1453.121704 
	C662.674744,1452.909668 673.491272,1453.001953 684.437866,1453.001953 
	C687.690552,1461.485596 690.804749,1469.846558 694.164673,1478.107544 
	C694.655212,1479.313599 696.241760,1480.727783 697.452515,1480.862061 
	C700.837646,1481.237793 704.291626,1480.992798 708.207275,1480.992798 
	C704.484192,1471.229370 701.014404,1462.130249 697.086975,1452.387329 
M408.000000,1402.510132 
	C408.000000,1428.576172 408.000000,1454.642334 408.000000,1480.598511 
	C425.748383,1480.598511 442.789093,1480.598511 459.705811,1480.598511 
	C459.705811,1477.256836 459.705811,1474.324463 459.705811,1470.848389 
	C446.372284,1470.848389 433.323181,1470.848389 420.418823,1470.848389 
	C420.418823,1459.907593 420.418823,1449.531494 420.418823,1438.785889 
	C432.763824,1438.785889 444.692505,1438.785889 456.630859,1438.785889 
	C456.630859,1435.015137 456.630859,1431.637451 456.630859,1427.882568 
	C444.340637,1427.882568 432.414978,1427.882568 420.315521,1427.882568 
	C420.315521,1418.451660 420.315521,1409.409668 420.315521,1399.814819 
	C433.674164,1399.814819 446.726196,1399.814819 459.747559,1399.814819 
	C459.747559,1395.989502 459.747559,1392.722534 459.747559,1389.310913 
	C442.454285,1389.310913 425.415100,1389.310913 408.000000,1389.310913 
	C408.000000,1393.583618 408.000000,1397.548950 408.000000,1402.510132 
M1111.069580,1446.000610 
	C1111.381470,1447.263306 1111.734253,1448.517456 1111.998901,1449.790039 
	C1115.083008,1464.627319 1122.686523,1475.634399 1137.776733,1480.354126 
	C1147.389648,1483.360596 1157.199463,1483.483398 1166.902588,1481.477417 
	C1177.459839,1479.294678 1177.395264,1478.965576 1176.910400,1469.139282 
	C1176.896118,1468.849243 1176.643677,1468.570923 1176.526001,1468.334473 
	C1170.614258,1469.537964 1164.751831,1471.555542 1158.826904,1471.759766 
	C1147.773682,1472.140625 1137.263184,1470.493652 1130.335571,1459.951538 
	C1123.018555,1448.816528 1122.988770,1436.816528 1124.987427,1424.410767 
	C1127.452148,1409.113647 1138.444702,1398.572144 1154.931763,1399.175049 
	C1161.794189,1399.426025 1168.585815,1401.617065 1176.303345,1403.097412 
	C1176.915283,1401.683472 1177.830566,1399.122192 1179.100342,1396.750488 
	C1180.583374,1393.980591 1179.994385,1392.992432 1176.935303,1391.812256 
	C1166.004028,1387.595215 1154.851318,1386.832397 1143.528809,1389.085571 
	C1128.237183,1392.128662 1116.263794,1403.033081 1113.203979,1418.063110 
	C1111.414185,1426.854126 1111.674561,1436.062500 1111.069580,1446.000610 
M766.243042,1432.005127 
	C754.977966,1432.005127 743.712891,1432.005127 732.330811,1432.005127 
	C732.330811,1421.079590 732.330811,1410.707886 732.330811,1399.790405 
	C745.701965,1399.790405 758.748962,1399.790405 771.729431,1399.790405 
	C771.729431,1395.971924 771.729431,1392.706421 771.729431,1389.318848 
	C754.425293,1389.318848 737.392700,1389.318848 720.344971,1389.318848 
	C720.344971,1419.994141 720.344971,1450.348389 720.344971,1480.585083 
	C724.409912,1480.585083 728.121765,1480.585083 732.202271,1480.585083 
	C732.202271,1467.918091 732.202271,1455.662598 732.202271,1442.866455 
	C744.621521,1442.866455 756.669861,1442.866455 769.941650,1442.866455 
	C768.893127,1438.732666 768.042908,1435.380615 766.243042,1432.005127 
M366.000793,1403.706055 
	C365.422729,1400.407715 367.152222,1399.893311 370.001587,1399.946167 
	C378.258087,1400.099731 386.519257,1400.000610 394.745667,1400.000610 
	C394.745667,1395.989502 394.745667,1392.720581 394.745667,1389.313965 
	C371.437164,1389.313965 348.384369,1389.313965 325.390381,1389.313965 
	C325.390381,1393.020142 325.390381,1396.401855 325.390381,1400.170166 
	C335.043671,1400.170166 344.311646,1400.170166 354.133118,1400.170166 
	C354.133118,1427.281982 354.133118,1454.001099 354.133118,1480.754395 
	C358.302490,1480.754395 361.901794,1480.754395 365.999969,1480.754395 
	C365.999969,1455.230469 365.999969,1429.948730 366.000793,1403.706055 
z"/>
<path fill="#844FBA" opacity="1.000000" stroke="none" 
	d="
M869.000000,1137.000000 
	C739.344360,1137.000000 610.188721,1137.000122 481.033112,1136.999634 
	C470.507812,1136.999634 465.000275,1131.442993 465.000214,1120.825073 
	C464.999847,1021.666870 465.000000,922.508606 465.000000,823.350403 
	C465.000000,821.397339 465.000000,819.444275 465.000000,817.000000 
	C462.551056,817.000000 460.597473,817.000000 458.643921,817.000000 
	C386.316772,817.000000 313.989624,817.000488 241.662460,816.999329 
	C233.419388,816.999207 228.004883,814.068542 225.816162,807.177185 
	C223.874954,801.065125 224.478394,793.875549 229.843033,788.515991 
	C416.120819,602.416321 602.294800,416.212738 788.484436,230.024811 
	C795.893738,222.615479 806.114014,222.622543 813.531738,230.040085 
	C999.251343,415.755402 1184.938477,601.503235 1370.800171,787.076111 
	C1378.573975,794.837769 1378.960938,808.454407 1372.434448,812.854675 
	C1369.361450,814.926514 1365.389893,816.818115 1361.819336,816.829224 
	C1288.992798,817.056824 1216.165527,817.000061 1143.338379,817.000000 
	C1141.386353,817.000000 1139.434448,817.000000 1137.000000,817.000000 
	C1137.000000,819.458801 1137.000000,821.413391 1137.000000,823.368042 
	C1137.000000,922.192932 1136.908447,1021.018005 1137.147705,1119.842285 
	C1137.170532,1129.284790 1131.170532,1137.246460 1119.908813,1137.197388 
	C1036.440552,1136.833252 952.969910,1137.000000 869.000000,1137.000000 
M757.974365,1104.980957 
	C873.541382,1104.980957 989.108459,1104.980957 1105.000000,1104.980957 
	C1105.000000,1102.349976 1105.000000,1100.374390 1105.000000,1098.398682 
	C1105.000000,999.076233 1104.999268,899.753845 1105.000977,800.431396 
	C1105.001099,790.869324 1110.807617,785.001831 1120.275757,785.001404 
	C1185.268555,784.998779 1250.261475,785.000000 1315.254272,785.000000 
	C1316.970947,785.000000 1318.687744,785.000000 1319.442017,785.000000 
	C1146.377930,611.935852 973.234009,438.791809 800.752197,266.309906 
	C628.229248,438.832886 455.193176,611.868958 282.062195,785.000000 
	C283.522614,785.000000 285.286438,785.000000 287.050262,785.000000 
	C351.543182,785.000000 416.036102,784.999878 480.529022,785.000183 
	C491.518250,785.000183 496.999725,790.402954 496.999786,801.235962 
	C497.000122,900.391785 497.000000,999.547546 497.000000,1098.703369 
	C497.000000,1100.651489 497.000000,1102.599609 497.000000,1104.953003 
	C574.988220,1104.953003 652.436035,1104.953003 729.942200,1105.879028 
	C729.942200,1109.923584 729.942200,1113.968140 729.942200,1119.217651 
	C733.858948,1117.096313 736.429077,1115.669067 739.030945,1114.302002 
	C745.027832,1111.151245 751.040161,1108.029785 757.974365,1104.980957 
z"/>
<path fill="#844FBA" opacity="1.000000" stroke="none" 
	d="
M1047.117188,1388.999268 
	C1050.889404,1388.999268 1054.183228,1388.999268 1057.731079,1388.999268 
	C1057.731079,1419.722534 1057.731079,1449.984497 1057.731079,1480.623535 
	C1054.040161,1480.623535 1050.326172,1480.623535 1046.074097,1480.623535 
	C1046.074097,1455.791504 1046.074097,1430.963623 1046.074097,1406.135742 
	C1045.778687,1406.091675 1045.483398,1406.047607 1045.187988,1406.003540 
	C1039.800659,1420.095337 1034.374878,1434.172729 1029.038940,1448.283936 
	C1025.236938,1458.338623 1021.669434,1468.484619 1017.676208,1478.461304 
	C1017.176453,1479.710205 1014.712524,1480.851440 1013.157104,1480.853516 
	C1010.226624,1480.857300 1006.542664,1482.655518 1004.908875,1477.911865 
	C1001.779358,1468.825195 998.328003,1459.847534 994.914978,1450.860840 
	C989.222473,1435.871826 983.455078,1420.911255 976.937622,1406.114990 
	C976.937622,1430.874146 976.937622,1455.633179 976.937622,1480.694336 
	C973.359070,1480.694336 970.091125,1480.694336 966.410278,1480.694336 
	C966.410278,1450.449707 966.410278,1420.068115 966.410278,1389.018188 
	C971.564819,1389.018188 976.835571,1388.871338 982.084045,1389.147827 
	C983.080078,1389.200195 984.438110,1390.761963 984.869690,1391.912109 
	C993.715393,1415.490601 1002.450684,1439.110474 1011.591736,1463.756836 
	C1014.648987,1456.141724 1017.414490,1449.582275 1019.928284,1442.927734 
	C1026.375366,1425.860474 1032.737427,1408.760742 1039.071167,1391.650757 
	C1040.579224,1387.576904 1043.950928,1389.397705 1047.117188,1388.999268 
z"/>
<path fill="#844FBA" opacity="1.000000" stroke="none" 
	d="
M802.739746,1392.682373 
	C819.112793,1385.424072 834.931396,1385.532471 849.919617,1395.069336 
	C859.697327,1401.290649 863.867188,1411.508301 865.823120,1422.320923 
	C868.412292,1436.633911 867.612427,1450.770752 860.035034,1463.792358 
	C853.653625,1474.758789 844.103760,1480.569580 831.483459,1482.096069 
	C821.648560,1483.285522 812.369141,1482.289185 803.376648,1478.100708 
	C791.443970,1472.542847 785.586609,1462.322021 783.184753,1450.233643 
	C780.998779,1439.231812 780.889282,1427.944092 784.025024,1416.943726 
	C786.988708,1406.547241 792.033691,1397.653198 802.739746,1392.682373 
M805.553040,1404.960938 
	C792.946045,1414.884521 793.526978,1439.312378 796.879028,1451.542114 
	C800.202576,1463.667603 808.359680,1470.309570 820.601929,1471.718506 
	C832.848206,1473.127930 845.132324,1468.459839 850.377136,1455.151978 
	C854.462097,1444.786987 855.062805,1434.028442 852.872742,1423.211426 
	C851.364563,1415.762451 848.778625,1408.621826 842.069763,1404.048828 
	C831.481873,1396.832031 816.831116,1397.048340 805.553040,1404.960938 
z"/>
<path fill="#844FBA" opacity="1.000000" stroke="none" 
	d="
M1246.589722,1393.247192 
	C1263.116455,1400.659424 1269.100830,1414.212036 1269.975708,1430.831909 
	C1270.500000,1440.790527 1269.325562,1450.425659 1264.834473,1459.589966 
	C1258.974487,1471.547607 1248.886719,1478.297119 1236.454590,1479.675537 
	C1223.372070,1481.126099 1210.003784,1480.000366 1196.377075,1480.000366 
	C1196.377075,1450.373169 1196.377075,1419.994263 1196.377075,1389.916626 
	C1208.258057,1389.916626 1220.135254,1389.623047 1231.985474,1390.060303 
	C1236.770264,1390.236816 1241.495972,1392.011475 1246.589722,1393.247192 
M1250.569580,1411.097534 
	C1239.124268,1397.262329 1223.454468,1400.260986 1208.331787,1400.087769 
	C1208.331787,1423.911133 1208.331787,1447.288330 1208.331787,1471.358643 
	C1216.097168,1470.870117 1223.566406,1470.912964 1230.858276,1469.796265 
	C1238.041138,1468.696045 1244.788330,1465.815186 1249.538696,1459.875610 
	C1259.753174,1447.104248 1259.367798,1424.205078 1250.569580,1411.097534 
z"/>
<path fill="#844FBA" opacity="1.000000" stroke="none" 
	d="
M914.676514,1389.008301 
	C919.334106,1389.689941 923.573608,1390.138794 927.698669,1391.086060 
	C937.635193,1393.367798 943.938721,1401.392090 945.111633,1411.075806 
	C946.841614,1425.359619 941.441589,1435.068481 927.765137,1440.497559 
	C935.927368,1453.864380 943.948364,1466.999878 952.481812,1480.974609 
	C947.726685,1480.974609 943.627808,1481.317261 939.641479,1480.797241 
	C938.151428,1480.602905 936.557739,1478.615967 935.635620,1477.073120 
	C929.445374,1466.715698 923.446899,1456.243896 917.301331,1445.859375 
	C916.820557,1445.046875 915.709229,1444.117920 914.863647,1444.090820 
	C909.750427,1443.926514 904.629272,1444.009155 899.141235,1444.009155 
	C899.141235,1456.392700 899.141235,1468.316162 899.141235,1480.617920 
	C894.723755,1480.617920 890.679443,1480.617920 886.313843,1480.617920 
	C886.313843,1450.276123 886.313843,1419.918945 886.313843,1389.002075 
	C895.673218,1389.002075 904.939819,1389.002075 914.676514,1389.008301 
M911.379639,1399.999512 
	C907.302063,1399.999512 903.224426,1399.999512 899.302612,1399.999512 
	C899.302612,1411.424438 899.302612,1422.017334 899.302612,1432.989624 
	C905.395203,1432.989624 911.233459,1433.430298 916.977173,1432.881592 
	C924.711792,1432.142822 930.425537,1428.519409 932.423645,1420.216431 
	C933.853271,1414.275879 932.439758,1408.091675 927.633911,1404.207153 
	C923.194946,1400.619141 917.813171,1400.031738 911.379639,1399.999512 
z"/>
<path fill="#844FBA" opacity="1.000000" stroke="none" 
	d="
M513.905151,1389.999878 
	C527.097656,1391.020508 535.947937,1397.812256 537.665588,1409.824707 
	C539.316833,1421.372559 538.270447,1432.479736 520.293396,1440.440430 
	C528.430176,1453.747559 536.559998,1467.043335 545.090149,1480.993652 
	C540.301453,1480.993652 536.318604,1481.312988 532.433655,1480.835449 
	C530.894104,1480.646118 529.107422,1478.964600 528.226135,1477.489014 
	C522.202881,1467.405029 516.484741,1457.137817 510.406189,1447.088379 
	C509.521576,1445.625977 507.302277,1444.290161 505.591125,1444.139648 
	C500.984863,1443.733887 496.319366,1444.000977 491.110962,1444.000977 
	C491.110962,1456.359863 491.110962,1468.414795 491.110962,1480.729858 
	C486.952911,1480.729858 483.353760,1480.729858 479.374634,1480.729858 
	C479.374634,1450.386597 479.374634,1420.008667 479.374634,1389.999634 
	C490.738983,1389.999634 502.099030,1389.999634 513.905151,1389.999878 
M518.364868,1430.096680 
	C519.842407,1428.626099 521.560913,1427.327148 522.753235,1425.653320 
	C526.592834,1420.263062 526.701660,1405.867188 517.876465,1402.393066 
	C509.169556,1398.965454 500.187408,1400.058472 491.262756,1400.160889 
	C491.262756,1411.359619 491.262756,1421.943848 491.262756,1434.028687 
	C500.397064,1432.864624 509.103088,1431.755127 518.364868,1430.096680 
z"/>
<path fill="#844FBA" opacity="1.000000" stroke="none" 
	d="
M574.994141,1388.999390 
	C584.435059,1389.995728 593.618774,1390.038330 602.266479,1392.212646 
	C615.182373,1395.460083 618.906738,1408.534912 617.670715,1419.570435 
	C616.491455,1430.099731 609.790527,1436.440063 599.989441,1440.452148 
	C608.097351,1453.760010 616.110596,1466.912476 624.688599,1480.991821 
	C619.864624,1480.991821 615.953735,1481.172363 612.078491,1480.880371 
	C610.939636,1480.794434 609.524780,1479.596924 608.875916,1478.522705 
	C602.463501,1467.906494 596.248230,1457.170776 589.785278,1446.585938 
	C589.037170,1445.360474 587.167664,1444.213135 585.745117,1444.117798 
	C581.110352,1443.807373 576.441650,1444.001465 571.217896,1444.001465 
	C571.217896,1456.246948 571.217896,1468.301392 571.217896,1480.673584 
	C566.942200,1480.673584 563.229126,1480.673584 559.255249,1480.673584 
	C559.255249,1450.259521 559.255249,1420.003662 559.255249,1388.999390 
	C564.316223,1388.999390 569.406677,1388.999390 574.994141,1388.999390 
M603.173279,1424.379639 
	C607.889404,1414.655762 603.750061,1403.814331 594.975769,1401.759644 
	C587.316833,1399.966309 579.198547,1400.134155 571.269165,1399.434204 
	C571.269165,1411.380615 571.269165,1421.961548 571.269165,1432.999756 
	C576.643127,1432.999756 581.762329,1433.135986 586.871155,1432.965454 
	C593.347473,1432.749268 599.116760,1430.854614 603.173279,1424.379639 
z"/>
<path fill="#844FBA" opacity="1.000000" stroke="none" 
	d="
M697.315796,1452.709229 
	C701.014404,1462.130249 704.484192,1471.229370 708.207275,1480.992798 
	C704.291626,1480.992798 700.837646,1481.237793 697.452515,1480.862061 
	C696.241760,1480.727783 694.655212,1479.313599 694.164673,1478.107544 
	C690.804749,1469.846558 687.690552,1461.485596 684.437866,1453.001953 
	C673.491272,1453.001953 662.674744,1452.909668 651.864197,1453.121704 
	C650.551392,1453.147339 648.616455,1454.529541 648.085388,1455.763184 
	C645.382202,1462.042358 642.699219,1468.373169 640.698181,1474.897217 
	C639.256592,1479.597168 637.008606,1481.878418 631.970520,1481.046509 
	C630.198853,1480.754028 628.338318,1480.999756 625.759216,1480.999756 
	C629.092285,1472.053345 632.142944,1463.556274 635.414368,1455.145020 
	C643.558594,1434.205322 651.972046,1413.368164 659.879578,1392.340210 
	C661.674927,1387.566040 664.971680,1389.319214 667.902222,1389.046387 
	C670.472290,1388.807251 672.762512,1388.631348 674.071838,1392.149170 
	C681.569336,1412.293457 689.381592,1432.320435 697.315796,1452.709229 
M670.507690,1414.008545 
	C669.348389,1410.734131 668.189087,1407.459717 666.980042,1404.045044 
	C662.347168,1416.935303 657.903442,1429.299194 653.446411,1441.700195 
	C662.644531,1441.700195 671.205261,1441.700195 680.331604,1441.700195 
	C677.087891,1432.407471 673.998413,1423.556519 670.507690,1414.008545 
z"/>
<path fill="#844FBA" opacity="1.000000" stroke="none" 
	d="
M408.000000,1402.012207 
	C408.000000,1397.548950 408.000000,1393.583618 408.000000,1389.310913 
	C425.415100,1389.310913 442.454285,1389.310913 459.747559,1389.310913 
	C459.747559,1392.722534 459.747559,1395.989502 459.747559,1399.814819 
	C446.726196,1399.814819 433.674164,1399.814819 420.315521,1399.814819 
	C420.315521,1409.409668 420.315521,1418.451660 420.315521,1427.882568 
	C432.414978,1427.882568 444.340637,1427.882568 456.630859,1427.882568 
	C456.630859,1431.637451 456.630859,1435.015137 456.630859,1438.785889 
	C444.692505,1438.785889 432.763824,1438.785889 420.418823,1438.785889 
	C420.418823,1449.531494 420.418823,1459.907593 420.418823,1470.848389 
	C433.323181,1470.848389 446.372284,1470.848389 459.705811,1470.848389 
	C459.705811,1474.324463 459.705811,1477.256836 459.705811,1480.598511 
	C442.789093,1480.598511 425.748383,1480.598511 408.000000,1480.598511 
	C408.000000,1454.642334 408.000000,1428.576172 408.000000,1402.012207 
z"/>
<path fill="#844FBA" opacity="1.000000" stroke="none" 
	d="
M1111.041016,1445.541870 
	C1111.674561,1436.062500 1111.414185,1426.854126 1113.203979,1418.063110 
	C1116.263794,1403.033081 1128.237183,1392.128662 1143.528809,1389.085571 
	C1154.851318,1386.832397 1166.004028,1387.595215 1176.935303,1391.812256 
	C1179.994385,1392.992432 1180.583374,1393.980591 1179.100342,1396.750488 
	C1177.830566,1399.122192 1176.915283,1401.683472 1176.303345,1403.097412 
	C1168.585815,1401.617065 1161.794189,1399.426025 1154.931763,1399.175049 
	C1138.444702,1398.572144 1127.452148,1409.113647 1124.987427,1424.410767 
	C1122.988770,1436.816528 1123.018555,1448.816528 1130.335571,1459.951538 
	C1137.263184,1470.493652 1147.773682,1472.140625 1158.826904,1471.759766 
	C1164.751831,1471.555542 1170.614258,1469.537964 1176.526001,1468.334473 
	C1176.643677,1468.570923 1176.896118,1468.849243 1176.910400,1469.139282 
	C1177.395264,1478.965576 1177.459839,1479.294678 1166.902588,1481.477417 
	C1157.199463,1483.483398 1147.389648,1483.360596 1137.776733,1480.354126 
	C1122.686523,1475.634399 1115.083008,1464.627319 1111.998901,1449.790039 
	C1111.734253,1448.517456 1111.381470,1447.263306 1111.041016,1445.541870 
z"/>
<path fill="#844FBA" opacity="1.000000" stroke="none" 
	d="
M766.717896,1432.016846 
	C768.042908,1435.380615 768.893127,1438.732666 769.941650,1442.866455 
	C756.669861,1442.866455 744.621521,1442.866455 732.202271,1442.866455 
	C732.202271,1455.662598 732.202271,1467.918091 732.202271,1480.585083 
	C728.121765,1480.585083 724.409912,1480.585083 720.344971,1480.585083 
	C720.344971,1450.348389 720.344971,1419.994141 720.344971,1389.318848 
	C737.392700,1389.318848 754.425293,1389.318848 771.729431,1389.318848 
	C771.729431,1392.706421 771.729431,1395.971924 771.729431,1399.790405 
	C758.748962,1399.790405 745.701965,1399.790405 732.330811,1399.790405 
	C732.330811,1410.707886 732.330811,1421.079590 732.330811,1432.005127 
	C743.712891,1432.005127 754.977966,1432.005127 766.717896,1432.016846 
z"/>
<path fill="#844FBA" opacity="1.000000" stroke="none" 
	d="
M366.000366,1404.186523 
	C365.999969,1429.948730 365.999969,1455.230469 365.999969,1480.754395 
	C361.901794,1480.754395 358.302490,1480.754395 354.133118,1480.754395 
	C354.133118,1454.001099 354.133118,1427.281982 354.133118,1400.170166 
	C344.311646,1400.170166 335.043671,1400.170166 325.390381,1400.170166 
	C325.390381,1396.401855 325.390381,1393.020142 325.390381,1389.313965 
	C348.384369,1389.313965 371.437164,1389.313965 394.745667,1389.313965 
	C394.745667,1392.720581 394.745667,1395.989502 394.745667,1400.000610 
	C386.519257,1400.000610 378.258087,1400.099731 370.001587,1399.946167 
	C367.152222,1399.893311 365.422729,1400.407715 366.000366,1404.186523 
z"/>
<path fill="#000000" opacity="1.000000" stroke="none" 
	d="
M729.883850,1104.953003 
	C652.436035,1104.953003 574.988220,1104.953003 497.000000,1104.953003 
	C497.000000,1102.599609 497.000000,1100.651489 497.000000,1098.703369 
	C497.000000,999.547546 497.000122,900.391785 496.999786,801.235962 
	C496.999725,790.402954 491.518250,785.000183 480.529022,785.000183 
	C416.036102,784.999878 351.543182,785.000000 287.050262,785.000000 
	C285.286438,785.000000 283.522614,785.000000 282.062195,785.000000 
	C455.193176,611.868958 628.229248,438.832886 800.752197,266.309906 
	C973.234009,438.791809 1146.377930,611.935852 1319.442017,785.000000 
	C1318.687744,785.000000 1316.970947,785.000000 1315.254272,785.000000 
	C1250.261475,785.000000 1185.268555,784.998779 1120.275757,785.001404 
	C1110.807617,785.001831 1105.001099,790.869324 1105.000977,800.431396 
	C1104.999268,899.753845 1105.000000,999.076233 1105.000000,1098.398682 
	C1105.000000,1100.374390 1105.000000,1102.349976 1105.000000,1104.980957 
	C989.108459,1104.980957 873.541382,1104.980957 757.649048,1104.622681 
	C767.110107,1098.748169 776.946106,1093.317749 786.672852,1087.698242 
	C807.551697,1075.635498 828.333923,1063.405151 849.261047,1051.427246 
	C852.566833,1049.535156 854.116821,1047.655640 854.110229,1043.542480 
	C853.965271,952.919556 853.999512,862.296387 853.999512,771.673279 
	C853.999512,769.895386 853.999512,768.117432 853.999512,765.762756 
	C852.271729,766.514282 851.052307,766.913452 849.962097,767.538147 
	C829.608398,779.201477 809.248718,790.854614 788.934875,802.586975 
	C770.600037,813.176392 752.374695,823.956970 733.957581,834.400269 
	C731.002930,836.075623 729.912292,837.681824 729.917969,841.085144 
	C730.028625,907.053223 730.009521,973.021606 729.994751,1038.989868 
	C729.989807,1060.977539 729.922546,1082.965332 729.883850,1104.953003 
M883.971680,891.519043 
	C902.443420,880.760071 920.903015,869.980103 939.390259,859.247864 
	C958.295288,848.273315 977.156616,837.219299 996.217957,826.522339 
	C999.368469,824.754333 1000.064514,822.922180 1000.058167,819.686340 
	C999.970825,775.386902 1000.002502,731.087158 999.986023,686.787537 
	C999.985413,685.232666 999.789429,683.677917 999.672424,681.944580 
	C998.513000,682.115967 997.768799,682.029663 997.249451,682.330994 
	C976.787292,694.204285 956.350891,706.122009 935.899597,718.014160 
	C916.994324,729.007385 898.132202,740.077576 879.099121,750.845337 
	C876.413147,752.364868 875.957214,753.946838 875.960510,756.590515 
	C876.015869,801.389709 876.000183,846.188965 876.000122,890.988220 
	C876.000122,892.419983 876.000061,893.851685 876.000061,895.889465 
	C878.835876,894.364502 881.094482,893.149963 883.971680,891.519043 
M628.370361,1038.928345 
	C631.500427,1037.173706 634.655090,1035.461182 637.756714,1033.657593 
	C660.143127,1020.639709 682.478638,1007.533142 704.947693,994.659729 
	C707.819763,993.014221 709.107605,991.528503 709.096191,988.027954 
	C708.951782,943.718506 709.001221,899.408386 709.001221,855.098450 
	C709.001221,853.487732 709.001221,851.877014 709.001221,849.425781 
	C706.837219,850.339844 705.309998,850.802368 703.965515,851.580505 
	C685.638367,862.189026 667.365540,872.891724 649.020508,883.469055 
	C628.842590,895.103088 608.611938,906.645935 588.381958,918.189331 
	C585.662170,919.741272 584.908020,921.835266 584.916626,924.985168 
	C585.039001,969.627869 585.000000,1014.271118 585.000000,1058.914185 
	C585.000000,1060.364502 585.000000,1061.814819 585.000000,1063.853027 
	C599.549316,1055.396484 613.592346,1047.234131 628.370361,1038.928345 
z"/>
<path fill="#5C4EE5" opacity="1.000000" stroke="none" 
	d="
M729.913025,1105.416016 
	C729.922546,1082.965332 729.989807,1060.977539 729.994751,1038.989868 
	C730.009521,973.021606 730.028625,907.053223 729.917969,841.085144 
	C729.912292,837.681824 731.002930,836.075623 733.957581,834.400269 
	C752.374695,823.956970 770.600037,813.176392 788.934875,802.586975 
	C809.248718,790.854614 829.608398,779.201477 849.962097,767.538147 
	C851.052307,766.913452 852.271729,766.514282 853.999512,765.762756 
	C853.999512,768.117432 853.999512,769.895386 853.999512,771.673279 
	C853.999512,862.296387 853.965271,952.919556 854.110229,1043.542480 
	C854.116821,1047.655640 852.566833,1049.535156 849.261047,1051.427246 
	C828.333923,1063.405151 807.551697,1075.635498 786.672852,1087.698242 
	C776.946106,1093.317749 767.110107,1098.748169 757.184937,1104.580322 
	C751.040161,1108.029785 745.027832,1111.151245 739.030945,1114.302002 
	C736.429077,1115.669067 733.858948,1117.096313 729.942200,1119.217651 
	C729.942200,1113.968140 729.942200,1109.923584 729.913025,1105.416016 
z"/>
<path fill="#000000" opacity="1.000000" stroke="none" 
	d="
M805.806030,1404.692871 
	C816.831116,1397.048340 831.481873,1396.832031 842.069763,1404.048828 
	C848.778625,1408.621826 851.364563,1415.762451 852.872742,1423.211426 
	C855.062805,1434.028442 854.462097,1444.786987 850.377136,1455.151978 
	C845.132324,1468.459839 832.848206,1473.127930 820.601929,1471.718506 
	C808.359680,1470.309570 800.202576,1463.667603 796.879028,1451.542114 
	C793.526978,1439.312378 792.946045,1414.884521 805.806030,1404.692871 
z"/>
<path fill="#000000" opacity="1.000000" stroke="none" 
	d="
M1250.751953,1411.417969 
	C1259.367798,1424.205078 1259.753174,1447.104248 1249.538696,1459.875610 
	C1244.788330,1465.815186 1238.041138,1468.696045 1230.858276,1469.796265 
	C1223.566406,1470.912964 1216.097168,1470.870117 1208.331787,1471.358643 
	C1208.331787,1447.288330 1208.331787,1423.911133 1208.331787,1400.087769 
	C1223.454468,1400.260986 1239.124268,1397.262329 1250.751953,1411.417969 
z"/>
<path fill="#000000" opacity="1.000000" stroke="none" 
	d="
M911.857117,1399.999512 
	C917.813171,1400.031738 923.194946,1400.619141 927.633911,1404.207153 
	C932.439758,1408.091675 933.853271,1414.275879 932.423645,1420.216431 
	C930.425537,1428.519409 924.711792,1432.142822 916.977173,1432.881592 
	C911.233459,1433.430298 905.395203,1432.989624 899.302612,1432.989624 
	C899.302612,1422.017334 899.302612,1411.424438 899.302612,1399.999512 
	C903.224426,1399.999512 907.302063,1399.999512 911.857117,1399.999512 
z"/>
<path fill="#000000" opacity="1.000000" stroke="none" 
	d="
M518.086975,1430.371094 
	C509.103088,1431.755127 500.397064,1432.864624 491.262756,1434.028687 
	C491.262756,1421.943848 491.262756,1411.359619 491.262756,1400.160889 
	C500.187408,1400.058472 509.169556,1398.965454 517.876465,1402.393066 
	C526.701660,1405.867188 526.592834,1420.263062 522.753235,1425.653320 
	C521.560913,1427.327148 519.842407,1428.626099 518.086975,1430.371094 
z"/>
<path fill="#000000" opacity="1.000000" stroke="none" 
	d="
M603.069458,1424.755859 
	C599.116760,1430.854614 593.347473,1432.749268 586.871155,1432.965454 
	C581.762329,1433.135986 576.643127,1432.999756 571.269165,1432.999756 
	C571.269165,1421.961548 571.269165,1411.380615 571.269165,1399.434204 
	C579.198547,1400.134155 587.316833,1399.966309 594.975769,1401.759644 
	C603.750061,1403.814331 607.889404,1414.655762 603.069458,1424.755859 
z"/>
<path fill="#000000" opacity="1.000000" stroke="none" 
	d="
M670.708313,1414.357056 
	C673.998413,1423.556519 677.087891,1432.407471 680.331604,1441.700195 
	C671.205261,1441.700195 662.644531,1441.700195 653.446411,1441.700195 
	C657.903442,1429.299194 662.347168,1416.935303 666.980042,1404.045044 
	C668.189087,1407.459717 669.348389,1410.734131 670.708313,1414.357056 
z"/>
<path fill="#844FBA" opacity="1.000000" stroke="none" 
	d="
M883.662415,891.727173 
	C881.094482,893.149963 878.835876,894.364502 876.000061,895.889465 
	C876.000061,893.851685 876.000122,892.419983 876.000122,890.988220 
	C876.000183,846.188965 876.015869,801.389709 875.960510,756.590515 
	C875.957214,753.946838 876.413147,752.364868 879.099121,750.845337 
	C898.132202,740.077576 916.994324,729.007385 935.899597,718.014160 
	C956.350891,706.122009 976.787292,694.204285 997.249451,682.330994 
	C997.768799,682.029663 998.513000,682.115967 999.672424,681.944580 
	C999.789429,683.677917 999.985413,685.232666 999.986023,686.787537 
	C1000.002502,731.087158 999.970825,775.386902 1000.058167,819.686340 
	C1000.064514,822.922180 999.368469,824.754333 996.217957,826.522339 
	C977.156616,837.219299 958.295288,848.273315 939.390259,859.247864 
	C920.903015,869.980103 902.443420,880.760071 883.662415,891.727173 
z"/>
<path fill="#5C4EE5" opacity="1.000000" stroke="none" 
	d="
M628.002808,1039.000000 
	C613.592346,1047.234131 599.549316,1055.396484 585.000000,1063.853027 
	C585.000000,1061.814819 585.000000,1060.364502 585.000000,1058.914185 
	C585.000000,1014.271118 585.039001,969.627869 584.916626,924.985168 
	C584.908020,921.835266 585.662170,919.741272 588.381958,918.189331 
	C608.611938,906.645935 628.842590,895.103088 649.020508,883.469055 
	C667.365540,872.891724 685.638367,862.189026 703.965515,851.580505 
	C705.309998,850.802368 706.837219,850.339844 709.001221,849.425781 
	C709.001221,851.877014 709.001221,853.487732 709.001221,855.098450 
	C709.001221,899.408386 708.951782,943.718506 709.096191,988.027954 
	C709.107605,991.528503 707.819763,993.014221 704.947693,994.659729 
	C682.478638,1007.533142 660.143127,1020.639709 637.756714,1033.657593 
	C634.655090,1035.461182 631.500427,1037.173706 628.002808,1039.000000 
z"/>
</svg>